<svg width="744" height="148" viewBox="0 0 744 148" fill="none" xmlns="http://www.w3.org/2000/svg">
<path d="M684.699 49.738C684.699 49.738 684.699 54.8684 682.562 59.3574C681.473 62.1454 679.507 64.9539 677.645 66.8391C675.723 68.785 673.034 70.8412 670.163 71.9694C665.674 74.107 660.544 74.107 660.544 74.107C660.544 74.107 664.605 73.8933 670.163 76.2447C672.942 77.5272 675.484 79.0801 678.073 81.8025C680.373 84.2214 681.882 86.7458 682.869 89.0705C684.913 94.2008 684.699 98.2623 684.699 98.2623C684.836 94.0869 685.749 90.1526 687.692 86.7191C689.402 83.9401 691.357 81.5873 693.677 79.6649C695.561 78.1045 697.767 76.7784 700.09 75.8171C702.86 74.6708 705.829 74.2082 709.068 74.107C704.727 73.9794 701.8 73.252 697.952 71.3281C695.387 70.0455 693.407 68.5212 691.753 66.8391C689.634 64.6827 688.003 62.3501 686.837 59.7849C684.699 55.0821 684.699 49.738 684.699 49.738Z" stroke="white" stroke-width="0.5" stroke-linejoin="round"/>
<path d="M344.388 49.738C344.388 49.738 344.388 54.8684 342.25 59.3574C341.161 62.1454 339.195 64.9539 337.333 66.8391C335.411 68.785 332.723 70.8412 329.852 71.9694C325.363 74.107 320.232 74.107 320.232 74.107C320.232 74.107 324.294 73.8933 329.852 76.2447C332.631 77.5272 335.172 79.0801 337.761 81.8025C340.061 84.2214 341.57 86.7458 342.558 89.0705C344.601 94.2008 344.388 98.2623 344.388 98.2623C344.525 94.0869 345.438 90.1526 347.38 86.7191C349.09 83.9401 351.045 81.5873 353.366 79.6649C355.249 78.1045 357.456 76.7784 359.779 75.8171C362.549 74.6708 365.518 74.2082 368.757 74.107C364.415 73.9794 361.489 73.252 357.641 71.3281C355.076 70.0455 353.095 68.5212 351.442 66.8391C349.322 64.6827 347.691 62.3501 346.525 59.7849C344.388 55.0821 344.388 49.738 344.388 49.738Z" stroke="white" stroke-width="0.5" stroke-linejoin="round"/>
<path d="M587.223 49.738C587.223 49.738 587.223 54.8684 585.085 59.3574C583.996 62.1454 582.03 64.9539 580.168 66.8391C578.246 68.785 575.558 70.8412 572.687 71.9694C568.198 74.107 563.067 74.107 563.067 74.107C563.067 74.107 567.129 73.8933 572.687 76.2447C575.466 77.5272 578.007 79.0801 580.596 81.8025C582.896 84.2214 584.405 86.7458 585.393 89.0705C587.436 94.2008 587.223 98.2623 587.223 98.2623C587.359 94.0869 588.272 90.1526 590.215 86.7191C591.925 83.9401 593.88 81.5873 596.201 79.6649C598.084 78.1045 600.291 76.7784 602.614 75.8171C605.384 74.6708 608.353 74.2082 611.592 74.107C607.25 73.9794 604.324 73.252 600.476 71.3281C597.911 70.0455 595.93 68.5212 594.277 66.8391C592.157 64.6827 590.526 62.3501 589.36 59.7849C587.223 55.0821 587.223 49.738 587.223 49.738Z" stroke="white" stroke-width="0.5" stroke-linejoin="round"/>
<path d="M246.911 49.738C246.911 49.738 246.911 54.8684 244.773 59.3574C243.685 62.1454 241.719 64.9539 239.857 66.8391C237.935 68.785 235.246 70.8412 232.375 71.9694C227.886 74.107 222.756 74.107 222.756 74.107C222.756 74.107 226.817 73.8933 232.375 76.2447C235.154 77.5272 237.696 79.0801 240.284 81.8025C242.585 84.2214 244.094 86.7458 245.081 89.0705C247.125 94.2008 246.911 98.2623 246.911 98.2623C247.048 94.0869 247.961 90.1526 249.904 86.7191C251.614 83.9401 253.569 81.5873 255.889 79.6649C257.773 78.1045 259.979 76.7784 262.302 75.8171C265.072 74.6708 268.041 74.2082 271.28 74.107C266.939 73.9794 264.012 73.252 260.164 71.3281C257.599 70.0455 255.619 68.5212 253.965 66.8391C251.846 64.6827 250.215 62.3501 249.049 59.7849C246.911 55.0821 246.911 49.738 246.911 49.738Z" stroke="white" stroke-width="0.5" stroke-linejoin="round"/>
<path d="M490.174 49.738C490.174 49.738 490.174 54.8684 488.036 59.3574C486.947 62.1454 484.982 64.9539 483.12 66.8391C481.198 68.785 478.509 70.8412 475.638 71.9694C471.149 74.107 466.019 74.107 466.019 74.107C466.019 74.107 470.08 73.8933 475.638 76.2447C478.417 77.5272 480.958 79.0801 483.547 81.8025C485.847 84.2214 487.356 86.7458 488.344 89.0705C490.388 94.2008 490.174 98.2623 490.174 98.2623C490.311 94.0869 491.224 90.1526 493.166 86.7191C494.877 83.9401 496.831 81.5873 499.152 79.6649C501.035 78.1045 503.242 76.7784 505.565 75.8171C508.335 74.6708 511.304 74.2082 514.543 74.107C510.201 73.9794 507.275 73.252 503.427 71.3281C500.862 70.0455 498.881 68.5212 497.228 66.8391C495.108 64.6827 493.477 62.3501 492.311 59.7849C490.174 55.0821 490.174 49.738 490.174 49.738Z" stroke="white" stroke-width="0.5" stroke-linejoin="round"/>
<path d="M149.862 49.738C149.862 49.738 149.862 54.8684 147.725 59.3574C146.636 62.1454 144.67 64.9539 142.808 66.8391C140.886 68.785 138.197 70.8412 135.326 71.9694C130.837 74.107 125.707 74.107 125.707 74.107C125.707 74.107 129.769 73.8933 135.326 76.2447C138.105 77.5272 140.647 79.0801 143.236 81.8025C145.536 84.2214 147.045 86.7458 148.033 89.0705C150.076 94.2008 149.862 98.2623 149.862 98.2623C149.999 94.0869 150.912 90.1526 152.855 86.7191C154.565 83.9401 156.52 81.5873 158.84 79.6649C160.724 78.1045 162.93 76.7784 165.253 75.8171C168.024 74.6708 170.992 74.2082 174.231 74.107C169.89 73.9794 166.963 73.252 163.116 71.3281C160.55 70.0455 158.57 68.5212 156.916 66.8391C154.797 64.6827 153.166 62.3501 152 59.7849C149.862 55.0821 149.862 49.738 149.862 49.738Z" stroke="white" stroke-width="0.5" stroke-linejoin="round"/>
<path d="M393.125 49.738C393.125 49.738 393.125 54.8684 390.987 59.3574C389.899 62.1454 387.933 64.9539 386.071 66.8391C384.149 68.785 381.46 70.8412 378.589 71.9694C374.1 74.107 368.97 74.107 368.97 74.107C368.97 74.107 373.031 73.8933 378.589 76.2447C381.368 77.5272 383.909 79.0801 386.498 81.8025C388.799 84.2214 390.307 86.7458 391.295 89.0705C393.339 94.2008 393.125 98.2623 393.125 98.2623C393.262 94.0869 394.175 90.1526 396.118 86.7191C397.828 83.9401 399.783 81.5873 402.103 79.6649C403.987 78.1045 406.193 76.7784 408.516 75.8171C411.286 74.6708 414.255 74.2082 417.494 74.107C413.153 73.9794 410.226 73.252 406.378 71.3281C403.813 70.0455 401.832 68.5212 400.179 66.8391C398.06 64.6827 396.429 62.3501 395.263 59.7849C393.125 55.0821 393.125 49.738 393.125 49.738Z" stroke="white" stroke-width="0.5" stroke-linejoin="round"/>
<path d="M52.8134 49.738C52.8134 49.738 52.8134 54.8684 50.6758 59.3574C49.5871 62.1454 47.6213 64.9539 45.7593 66.8391C43.8373 68.785 41.1485 70.8412 38.2775 71.9694C33.7885 74.107 28.6582 74.107 28.6582 74.107C28.6582 74.107 32.7197 73.8933 38.2775 76.2447C41.0565 77.5272 43.5979 79.0801 46.1868 81.8025C48.487 84.2214 49.9959 86.7458 50.9837 89.0705C53.0272 94.2008 52.8134 98.2623 52.8134 98.2623C52.9503 94.0869 53.8633 90.1526 55.8061 86.7191C57.5162 83.9401 59.471 81.5873 61.7915 79.6649C63.6751 78.1045 65.8815 76.7784 68.2044 75.8171C70.9747 74.6708 73.9437 74.2082 77.1824 74.107C72.8411 73.9794 69.9145 73.252 66.0668 71.3281C63.5016 70.0455 61.521 68.5212 59.8676 66.8391C57.7481 64.6827 56.1171 62.3501 54.9511 59.7849C52.8134 55.0821 52.8134 49.738 52.8134 49.738Z" stroke="white" stroke-width="0.5" stroke-linejoin="round"/>
<path d="M441.435 1C441.435 1 441.435 6.13032 439.297 10.6193C438.208 13.4074 436.242 16.2159 434.38 18.1011C432.458 20.047 429.77 22.1032 426.899 23.2314C422.41 25.369 417.279 25.369 417.279 25.369C417.279 25.369 421.341 25.1552 426.899 27.5066C429.678 28.7892 432.219 30.3421 434.808 33.0645C437.108 35.4833 438.617 38.0077 439.605 40.3324C441.648 45.4627 441.435 49.5242 441.435 49.5242C441.571 45.3488 442.484 41.4145 444.427 37.981C446.137 35.2021 448.092 32.8492 450.413 30.9268C452.296 29.3664 454.503 28.0403 456.825 27.0791C459.596 25.9327 462.565 25.4702 465.804 25.369C461.462 25.2413 458.536 24.5139 454.688 22.5901C452.123 21.3075 450.142 19.7832 448.489 18.1011C446.369 15.9446 444.738 13.612 443.572 11.0469C441.435 6.34408 441.435 1 441.435 1Z" stroke="white" stroke-width="0.5" stroke-linejoin="round"/>
<path d="M441.435 98.4758C441.435 98.4758 441.435 103.606 439.297 108.095C438.208 110.883 436.242 113.692 434.38 115.577C432.458 117.523 429.77 119.579 426.899 120.707C422.41 122.845 417.279 122.845 417.279 122.845C417.279 122.845 421.341 122.631 426.899 124.982C429.678 126.265 432.219 127.818 434.808 130.54C437.108 132.959 438.617 135.484 439.605 137.808C441.648 142.939 441.435 147 441.435 147C441.571 142.825 442.484 138.89 444.427 135.457C446.137 132.678 448.092 130.325 450.413 128.403C452.296 126.842 454.503 125.516 456.825 124.555C459.596 123.409 462.565 122.946 465.804 122.845C461.462 122.717 458.536 121.99 454.688 120.066C452.123 118.783 450.142 117.259 448.489 115.577C446.369 113.42 444.738 111.088 443.572 108.523C441.435 103.82 441.435 98.4758 441.435 98.4758Z" stroke="white" stroke-width="0.5" stroke-linejoin="round"/>
<path d="M684.699 1C684.699 1 684.699 6.13032 682.562 10.6193C681.473 13.4074 679.507 16.2159 677.645 18.1011C675.723 20.047 673.034 22.1032 670.163 23.2314C665.674 25.369 660.544 25.369 660.544 25.369C660.544 25.369 664.605 25.1552 670.163 27.5066C672.942 28.7892 675.484 30.3421 678.073 33.0645C680.373 35.4833 681.882 38.0077 682.869 40.3324C684.913 45.4627 684.699 49.5242 684.699 49.5242C684.836 45.3488 685.749 41.4145 687.692 37.981C689.402 35.2021 691.357 32.8492 693.677 30.9268C695.561 29.3664 697.767 28.0403 700.09 27.0791C702.86 25.9327 705.829 25.4702 709.068 25.369C704.727 25.2413 701.8 24.5139 697.952 22.5901C695.387 21.3075 693.407 19.7832 691.753 18.1011C689.634 15.9446 688.003 13.612 686.837 11.0469C684.699 6.34408 684.699 1 684.699 1Z" stroke="white" stroke-width="0.5" stroke-linejoin="round"/>
<path d="M684.699 98.4758C684.699 98.4758 684.699 103.606 682.562 108.095C681.473 110.883 679.507 113.692 677.645 115.577C675.723 117.523 673.034 119.579 670.163 120.707C665.674 122.845 660.544 122.845 660.544 122.845C660.544 122.845 664.605 122.631 670.163 124.982C672.942 126.265 675.484 127.818 678.073 130.54C680.373 132.959 681.882 135.484 682.869 137.808C684.913 142.939 684.699 147 684.699 147C684.836 142.825 685.749 138.89 687.692 135.457C689.402 132.678 691.357 130.325 693.677 128.403C695.561 126.842 697.767 125.516 700.09 124.555C702.86 123.409 705.829 122.946 709.068 122.845C704.727 122.717 701.8 121.99 697.952 120.066C695.387 118.783 693.407 117.259 691.753 115.577C689.634 113.42 688.003 111.088 686.837 108.523C684.699 103.82 684.699 98.4758 684.699 98.4758Z" stroke="white" stroke-width="0.5" stroke-linejoin="round"/>
<path d="M344.388 1C344.388 1 344.388 6.13032 342.25 10.6193C341.161 13.4074 339.195 16.2159 337.333 18.1011C335.411 20.047 332.723 22.1032 329.852 23.2314C325.363 25.369 320.232 25.369 320.232 25.369C320.232 25.369 324.294 25.1552 329.852 27.5066C332.631 28.7892 335.172 30.3421 337.761 33.0645C340.061 35.4833 341.57 38.0077 342.558 40.3324C344.601 45.4627 344.388 49.5242 344.388 49.5242C344.525 45.3488 345.438 41.4145 347.38 37.981C349.09 35.2021 351.045 32.8492 353.366 30.9268C355.249 29.3664 357.456 28.0403 359.779 27.0791C362.549 25.9327 365.518 25.4702 368.757 25.369C364.415 25.2413 361.489 24.5139 357.641 22.5901C355.076 21.3075 353.095 19.7832 351.442 18.1011C349.322 15.9446 347.691 13.612 346.525 11.0469C344.388 6.34408 344.388 1 344.388 1Z" stroke="white" stroke-width="0.5" stroke-linejoin="round"/>
<path d="M344.388 98.4758C344.388 98.4758 344.388 103.606 342.25 108.095C341.161 110.883 339.195 113.692 337.333 115.577C335.411 117.523 332.723 119.579 329.852 120.707C325.363 122.845 320.232 122.845 320.232 122.845C320.232 122.845 324.294 122.631 329.852 124.982C332.631 126.265 335.172 127.818 337.761 130.54C340.061 132.959 341.57 135.484 342.558 137.808C344.601 142.939 344.388 147 344.388 147C344.525 142.825 345.438 138.89 347.38 135.457C349.09 132.678 351.045 130.325 353.366 128.403C355.249 126.842 357.456 125.516 359.779 124.555C362.549 123.409 365.518 122.946 368.757 122.845C364.415 122.717 361.489 121.99 357.641 120.066C355.076 118.783 353.095 117.259 351.442 115.577C349.322 113.42 347.691 111.088 346.525 108.523C344.388 103.82 344.388 98.4758 344.388 98.4758Z" stroke="white" stroke-width="0.5" stroke-linejoin="round"/>
<path d="M587.223 1C587.223 1 587.223 6.13032 585.085 10.6193C583.996 13.4074 582.03 16.2159 580.168 18.1011C578.246 20.047 575.558 22.1032 572.687 23.2314C568.198 25.369 563.067 25.369 563.067 25.369C563.067 25.369 567.129 25.1552 572.687 27.5066C575.466 28.7892 578.007 30.3421 580.596 33.0645C582.896 35.4833 584.405 38.0077 585.393 40.3324C587.436 45.4627 587.223 49.5242 587.223 49.5242C587.359 45.3488 588.272 41.4145 590.215 37.981C591.925 35.2021 593.88 32.8492 596.201 30.9268C598.084 29.3664 600.291 28.0403 602.614 27.0791C605.384 25.9327 608.353 25.4702 611.592 25.369C607.25 25.2413 604.324 24.5139 600.476 22.5901C597.911 21.3075 595.93 19.7832 594.277 18.1011C592.157 15.9446 590.526 13.612 589.36 11.0469C587.223 6.34408 587.223 1 587.223 1Z" stroke="white" stroke-width="0.5" stroke-linejoin="round"/>
<path d="M587.223 98.4758C587.223 98.4758 587.223 103.606 585.085 108.095C583.996 110.883 582.03 113.692 580.168 115.577C578.246 117.523 575.558 119.579 572.687 120.707C568.198 122.845 563.067 122.845 563.067 122.845C563.067 122.845 567.129 122.631 572.687 124.982C575.466 126.265 578.007 127.818 580.596 130.54C582.896 132.959 584.405 135.484 585.393 137.808C587.436 142.939 587.223 147 587.223 147C587.359 142.825 588.272 138.89 590.215 135.457C591.925 132.678 593.88 130.325 596.201 128.403C598.084 126.842 600.291 125.516 602.614 124.555C605.384 123.409 608.353 122.946 611.592 122.845C607.25 122.717 604.324 121.99 600.476 120.066C597.911 118.783 595.93 117.259 594.277 115.577C592.157 113.42 590.526 111.088 589.36 108.523C587.223 103.82 587.223 98.4758 587.223 98.4758Z" stroke="white" stroke-width="0.5" stroke-linejoin="round"/>
<path d="M246.911 1C246.911 1 246.911 6.13032 244.773 10.6193C243.685 13.4074 241.719 16.2159 239.857 18.1011C237.935 20.047 235.246 22.1032 232.375 23.2314C227.886 25.369 222.756 25.369 222.756 25.369C222.756 25.369 226.817 25.1552 232.375 27.5066C235.154 28.7892 237.696 30.3421 240.284 33.0645C242.585 35.4833 244.094 38.0077 245.081 40.3324C247.125 45.4627 246.911 49.5242 246.911 49.5242C247.048 45.3488 247.961 41.4145 249.904 37.981C251.614 35.2021 253.569 32.8492 255.889 30.9268C257.773 29.3664 259.979 28.0403 262.302 27.0791C265.072 25.9327 268.041 25.4702 271.28 25.369C266.939 25.2413 264.012 24.5139 260.164 22.5901C257.599 21.3075 255.619 19.7832 253.965 18.1011C251.846 15.9446 250.215 13.612 249.049 11.0469C246.911 6.34408 246.911 1 246.911 1Z" stroke="white" stroke-width="0.5" stroke-linejoin="round"/>
<path d="M246.911 98.4758C246.911 98.4758 246.911 103.606 244.773 108.095C243.685 110.883 241.719 113.692 239.857 115.577C237.935 117.523 235.246 119.579 232.375 120.707C227.886 122.845 222.756 122.845 222.756 122.845C222.756 122.845 226.817 122.631 232.375 124.982C235.154 126.265 237.696 127.818 240.284 130.54C242.585 132.959 244.094 135.484 245.081 137.808C247.125 142.939 246.911 147 246.911 147C247.048 142.825 247.961 138.89 249.904 135.457C251.614 132.678 253.569 130.325 255.889 128.403C257.773 126.842 259.979 125.516 262.302 124.555C265.072 123.409 268.041 122.946 271.28 122.845C266.939 122.717 264.012 121.99 260.164 120.066C257.599 118.783 255.619 117.259 253.965 115.577C251.846 113.42 250.215 111.088 249.049 108.523C246.911 103.82 246.911 98.4758 246.911 98.4758Z" stroke="white" stroke-width="0.5" stroke-linejoin="round"/>
<path d="M490.174 1C490.174 1 490.174 6.13032 488.036 10.6193C486.947 13.4074 484.982 16.2159 483.12 18.1011C481.198 20.047 478.509 22.1032 475.638 23.2314C471.149 25.369 466.019 25.369 466.019 25.369C466.019 25.369 470.08 25.1552 475.638 27.5066C478.417 28.7892 480.958 30.3421 483.547 33.0645C485.847 35.4833 487.356 38.0077 488.344 40.3324C490.388 45.4627 490.174 49.5242 490.174 49.5242C490.311 45.3488 491.224 41.4145 493.166 37.981C494.877 35.2021 496.831 32.8492 499.152 30.9268C501.035 29.3664 503.242 28.0403 505.565 27.0791C508.335 25.9327 511.304 25.4702 514.543 25.369C510.201 25.2413 507.275 24.5139 503.427 22.5901C500.862 21.3075 498.881 19.7832 497.228 18.1011C495.108 15.9446 493.477 13.612 492.311 11.0469C490.174 6.34408 490.174 1 490.174 1Z" stroke="white" stroke-width="0.5" stroke-linejoin="round"/>
<path d="M490.174 98.4758C490.174 98.4758 490.174 103.606 488.036 108.095C486.947 110.883 484.982 113.692 483.12 115.577C481.198 117.523 478.509 119.579 475.638 120.707C471.149 122.845 466.019 122.845 466.019 122.845C466.019 122.845 470.08 122.631 475.638 124.982C478.417 126.265 480.958 127.818 483.547 130.54C485.847 132.959 487.356 135.484 488.344 137.808C490.388 142.939 490.174 147 490.174 147C490.311 142.825 491.224 138.89 493.166 135.457C494.877 132.678 496.831 130.325 499.152 128.403C501.035 126.842 503.242 125.516 505.565 124.555C508.335 123.409 511.304 122.946 514.543 122.845C510.201 122.717 507.275 121.99 503.427 120.066C500.862 118.783 498.881 117.259 497.228 115.577C495.108 113.42 493.477 111.088 492.311 108.523C490.174 103.82 490.174 98.4758 490.174 98.4758Z" stroke="white" stroke-width="0.5" stroke-linejoin="round"/>
<path d="M149.862 1C149.862 1 149.862 6.13032 147.725 10.6193C146.636 13.4074 144.67 16.2159 142.808 18.1011C140.886 20.047 138.197 22.1032 135.326 23.2314C130.837 25.369 125.707 25.369 125.707 25.369C125.707 25.369 129.769 25.1552 135.326 27.5066C138.105 28.7892 140.647 30.3421 143.236 33.0645C145.536 35.4833 147.045 38.0077 148.033 40.3324C150.076 45.4627 149.862 49.5242 149.862 49.5242C149.999 45.3488 150.912 41.4145 152.855 37.981C154.565 35.2021 156.52 32.8492 158.84 30.9268C160.724 29.3664 162.93 28.0403 165.253 27.0791C168.024 25.9327 170.992 25.4702 174.231 25.369C169.89 25.2413 166.963 24.5139 163.116 22.5901C160.55 21.3075 158.57 19.7832 156.916 18.1011C154.797 15.9446 153.166 13.612 152 11.0469C149.862 6.34408 149.862 1 149.862 1Z" stroke="white" stroke-width="0.5" stroke-linejoin="round"/>
<path d="M149.862 98.4758C149.862 98.4758 149.862 103.606 147.725 108.095C146.636 110.883 144.67 113.692 142.808 115.577C140.886 117.523 138.197 119.579 135.326 120.707C130.837 122.845 125.707 122.845 125.707 122.845C125.707 122.845 129.769 122.631 135.326 124.982C138.105 126.265 140.647 127.818 143.236 130.54C145.536 132.959 147.045 135.484 148.033 137.808C150.076 142.939 149.862 147 149.862 147C149.999 142.825 150.912 138.89 152.855 135.457C154.565 132.678 156.52 130.325 158.84 128.403C160.724 126.842 162.93 125.516 165.253 124.555C168.024 123.409 170.992 122.946 174.231 122.845C169.89 122.717 166.963 121.99 163.116 120.066C160.55 118.783 158.57 117.259 156.916 115.577C154.797 113.42 153.166 111.088 152 108.523C149.862 103.82 149.862 98.4758 149.862 98.4758Z" stroke="white" stroke-width="0.5" stroke-linejoin="round"/>
<path d="M393.125 1C393.125 1 393.125 6.13032 390.987 10.6193C389.899 13.4074 387.933 16.2159 386.071 18.1011C384.149 20.047 381.46 22.1032 378.589 23.2314C374.1 25.369 368.97 25.369 368.97 25.369C368.97 25.369 373.031 25.1552 378.589 27.5066C381.368 28.7892 383.909 30.3421 386.498 33.0645C388.799 35.4833 390.307 38.0077 391.295 40.3324C393.339 45.4627 393.125 49.5242 393.125 49.5242C393.262 45.3488 394.175 41.4145 396.118 37.981C397.828 35.2021 399.783 32.8492 402.103 30.9268C403.987 29.3664 406.193 28.0403 408.516 27.0791C411.286 25.9327 414.255 25.4702 417.494 25.369C413.153 25.2413 410.226 24.5139 406.378 22.5901C403.813 21.3075 401.832 19.7832 400.179 18.1011C398.06 15.9446 396.429 13.612 395.263 11.0469C393.125 6.34408 393.125 1 393.125 1Z" stroke="white" stroke-width="0.5" stroke-linejoin="round"/>
<path d="M393.125 98.4758C393.125 98.4758 393.125 103.606 390.987 108.095C389.899 110.883 387.933 113.692 386.071 115.577C384.149 117.523 381.46 119.579 378.589 120.707C374.1 122.845 368.97 122.845 368.97 122.845C368.97 122.845 373.031 122.631 378.589 124.982C381.368 126.265 383.909 127.818 386.498 130.54C388.799 132.959 390.307 135.484 391.295 137.808C393.339 142.939 393.125 147 393.125 147C393.262 142.825 394.175 138.89 396.118 135.457C397.828 132.678 399.783 130.325 402.103 128.403C403.987 126.842 406.193 125.516 408.516 124.555C411.286 123.409 414.255 122.946 417.494 122.845C413.153 122.717 410.226 121.99 406.378 120.066C403.813 118.783 401.832 117.259 400.179 115.577C398.06 113.42 396.429 111.088 395.263 108.523C393.125 103.82 393.125 98.4758 393.125 98.4758Z" stroke="white" stroke-width="0.5" stroke-linejoin="round"/>
<path d="M52.8134 1C52.8134 1 52.8134 6.13032 50.6758 10.6193C49.5871 13.4074 47.6213 16.2159 45.7593 18.1011C43.8373 20.047 41.1485 22.1032 38.2775 23.2314C33.7885 25.369 28.6582 25.369 28.6582 25.369C28.6582 25.369 32.7197 25.1552 38.2775 27.5066C41.0565 28.7892 43.5979 30.3421 46.1868 33.0645C48.487 35.4833 49.9959 38.0077 50.9837 40.3324C53.0272 45.4627 52.8134 49.5242 52.8134 49.5242C52.9503 45.3488 53.8633 41.4145 55.8061 37.981C57.5162 35.2021 59.471 32.8492 61.7915 30.9268C63.6751 29.3664 65.8815 28.0403 68.2044 27.0791C70.9747 25.9327 73.9437 25.4702 77.1824 25.369C72.8411 25.2413 69.9145 24.5139 66.0668 22.5901C63.5016 21.3075 61.521 19.7832 59.8676 18.1011C57.7481 15.9446 56.1171 13.612 54.9511 11.0469C52.8134 6.34408 52.8134 1 52.8134 1Z" stroke="white" stroke-width="0.5" stroke-linejoin="round"/>
<path d="M52.8134 98.4758C52.8134 98.4758 52.8134 103.606 50.6758 108.095C49.5871 110.883 47.6213 113.692 45.7593 115.577C43.8373 117.523 41.1485 119.579 38.2775 120.707C33.7885 122.845 28.6582 122.845 28.6582 122.845C28.6582 122.845 32.7197 122.631 38.2775 124.982C41.0565 126.265 43.5979 127.818 46.1868 130.54C48.487 132.959 49.9959 135.484 50.9837 137.808C53.0272 142.939 52.8134 147 52.8134 147C52.9503 142.825 53.8633 138.89 55.8061 135.457C57.5162 132.678 59.471 130.325 61.7915 128.403C63.6751 126.842 65.8815 125.516 68.2044 124.555C70.9747 123.409 73.9437 122.946 77.1824 122.845C72.8411 122.717 69.9145 121.99 66.0668 120.066C63.5016 118.783 61.521 117.259 59.8676 115.577C57.7481 113.42 56.1171 111.088 54.9511 108.523C52.8134 103.82 52.8134 98.4758 52.8134 98.4758Z" stroke="white" stroke-width="0.5" stroke-linejoin="round"/>
<path d="M733.009 49.738C733.009 49.738 733.009 54.8684 730.871 59.3574C729.782 62.1454 727.817 64.9539 725.955 66.8391C724.033 68.785 721.344 70.8412 718.473 71.9694C713.984 74.107 708.854 74.107 708.854 74.107C708.854 74.107 712.915 73.8933 718.473 76.2447C721.252 77.5272 723.793 79.0801 726.382 81.8025C728.682 84.2214 730.191 86.7458 731.179 89.0705C733.223 94.2008 733.009 98.2623 733.009 98.2623C733.146 94.0869 734.059 90.1526 736.001 86.7191C737.712 83.9401 739.666 81.5873 741.987 79.6649C743.87 78.1045 746.077 76.7784 748.4 75.8171C751.17 74.6708 754.139 74.2082 757.378 74.107C753.036 73.9794 750.11 73.252 746.262 71.3281C743.697 70.0455 741.716 68.5212 740.063 66.8391C737.943 64.6827 736.312 62.3501 735.146 59.7849C733.009 55.0821 733.009 49.738 733.009 49.738Z" stroke="white" stroke-width="0.5" stroke-linejoin="round"/>
<path d="M635.96 49.738C635.96 49.738 635.96 54.8684 633.822 59.3574C632.734 62.1454 630.768 64.9539 628.906 66.8391C626.984 68.785 624.295 70.8412 621.424 71.9694C616.935 74.107 611.805 74.107 611.805 74.107C611.805 74.107 615.866 73.8933 621.424 76.2447C624.203 77.5272 626.744 79.0801 629.333 81.8025C631.634 84.2214 633.142 86.7458 634.13 89.0705C636.174 94.2008 635.96 98.2623 635.96 98.2623C636.097 94.0869 637.01 90.1526 638.953 86.7191C640.663 83.9401 642.618 81.5873 644.938 79.6649C646.822 78.1045 649.028 76.7784 651.351 75.8171C654.121 74.6708 657.09 74.2082 660.329 74.107C655.988 73.9794 653.061 73.252 649.213 71.3281C646.648 70.0455 644.667 68.5212 643.014 66.8391C640.895 64.6827 639.264 62.3501 638.098 59.7849C635.96 55.0821 635.96 49.738 635.96 49.738Z" stroke="white" stroke-width="0.5" stroke-linejoin="round"/>
<path d="M295.65 49.738C295.65 49.738 295.65 54.8684 293.513 59.3574C292.424 62.1454 290.458 64.9539 288.596 66.8391C286.674 68.785 283.985 70.8412 281.114 71.9694C276.625 74.107 271.495 74.107 271.495 74.107C271.495 74.107 275.557 73.8933 281.114 76.2447C283.893 77.5272 286.435 79.0801 289.024 81.8025C291.324 84.2214 292.833 86.7458 293.821 89.0705C295.864 94.2008 295.65 98.2623 295.65 98.2623C295.787 94.0869 296.7 90.1526 298.643 86.7191C300.353 83.9401 302.308 81.5873 304.628 79.6649C306.512 78.1045 308.718 76.7784 311.041 75.8171C313.812 74.6708 316.781 74.2082 320.019 74.107C315.678 73.9794 312.751 73.252 308.904 71.3281C306.339 70.0455 304.358 68.5212 302.705 66.8391C300.585 64.6827 298.954 62.3501 297.788 59.7849C295.65 55.0821 295.65 49.738 295.65 49.738Z" stroke="white" stroke-width="0.5" stroke-linejoin="round"/>
<path d="M538.485 49.738C538.485 49.738 538.485 54.8684 536.348 59.3574C535.259 62.1454 533.293 64.9539 531.431 66.8391C529.509 68.785 526.82 70.8412 523.949 71.9694C519.46 74.107 514.33 74.107 514.33 74.107C514.33 74.107 518.392 73.8933 523.949 76.2447C526.728 77.5272 529.27 79.0801 531.859 81.8025C534.159 84.2214 535.668 86.7458 536.656 89.0705C538.699 94.2008 538.485 98.2623 538.485 98.2623C538.622 94.0869 539.535 90.1526 541.478 86.7191C543.188 83.9401 545.143 81.5873 547.463 79.6649C549.347 78.1045 551.553 76.7784 553.876 75.8171C556.647 74.6708 559.616 74.2082 562.854 74.107C558.513 73.9794 555.586 73.252 551.739 71.3281C549.173 70.0455 547.193 68.5212 545.539 66.8391C543.42 64.6827 541.789 62.3501 540.623 59.7849C538.485 55.0821 538.485 49.738 538.485 49.738Z" stroke="white" stroke-width="0.5" stroke-linejoin="round"/>
<path d="M198.174 49.738C198.174 49.738 198.174 54.8684 196.036 59.3574C194.947 62.1454 192.982 64.9539 191.12 66.8391C189.198 68.785 186.509 70.8412 183.638 71.9694C179.149 74.107 174.019 74.107 174.019 74.107C174.019 74.107 178.08 73.8933 183.638 76.2447C186.417 77.5272 188.958 79.0801 191.547 81.8025C193.847 84.2214 195.356 86.7458 196.344 89.0705C198.388 94.2008 198.174 98.2623 198.174 98.2623C198.311 94.0869 199.224 90.1526 201.166 86.7191C202.877 83.9401 204.831 81.5873 207.152 79.6649C209.035 78.1045 211.242 76.7784 213.565 75.8171C216.335 74.6708 219.304 74.2082 222.543 74.107C218.201 73.9794 215.275 73.252 211.427 71.3281C208.862 70.0455 206.881 68.5212 205.228 66.8391C203.108 64.6827 201.477 62.3501 200.311 59.7849C198.174 55.0821 198.174 49.738 198.174 49.738Z" stroke="white" stroke-width="0.5" stroke-linejoin="round"/>
<path d="M441.435 49.738C441.435 49.738 441.435 54.8684 439.297 59.3574C438.208 62.1454 436.242 64.9539 434.38 66.8391C432.458 68.785 429.77 70.8412 426.899 71.9694C422.41 74.107 417.279 74.107 417.279 74.107C417.279 74.107 421.341 73.8933 426.899 76.2447C429.678 77.5272 432.219 79.0801 434.808 81.8025C437.108 84.2214 438.617 86.7458 439.605 89.0705C441.648 94.2008 441.435 98.2623 441.435 98.2623C441.571 94.0869 442.484 90.1526 444.427 86.7191C446.137 83.9401 448.092 81.5873 450.413 79.6649C452.296 78.1045 454.503 76.7784 456.825 75.8171C459.596 74.6708 462.565 74.2082 465.804 74.107C461.462 73.9794 458.536 73.252 454.688 71.3281C452.123 70.0455 450.142 68.5212 448.489 66.8391C446.369 64.6827 444.738 62.3501 443.572 59.7849C441.435 55.0821 441.435 49.738 441.435 49.738Z" stroke="white" stroke-width="0.5" stroke-linejoin="round"/>
<path d="M101.125 49.738C101.125 49.738 101.125 54.8684 98.9873 59.3574C97.8986 62.1454 95.9328 64.9539 94.0708 66.8391C92.1488 68.785 89.46 70.8412 86.5891 71.9694C82.1 74.107 76.9697 74.107 76.9697 74.107C76.9697 74.107 81.0312 73.8933 86.5891 76.2447C89.368 77.5272 91.9094 79.0801 94.4983 81.8025C96.7985 84.2214 98.3075 86.7458 99.2952 89.0705C101.339 94.2008 101.125 98.2623 101.125 98.2623C101.262 94.0869 102.175 90.1526 104.118 86.7191C105.828 83.9401 107.783 81.5873 110.103 79.6649C111.987 78.1045 114.193 76.7784 116.516 75.8171C119.286 74.6708 122.255 74.2082 125.494 74.107C121.153 73.9794 118.226 73.252 114.378 71.3281C111.813 70.0455 109.832 68.5212 108.179 66.8391C106.06 64.6827 104.429 62.3501 103.263 59.7849C101.125 55.0821 101.125 49.738 101.125 49.738Z" stroke="white" stroke-width="0.5" stroke-linejoin="round"/>
<path d="M4.07614 49.738C4.07614 49.738 4.07614 54.8684 1.9385 59.3574C0.849757 62.1454 -1.11603 64.9539 -2.97805 66.8391C-4.90003 68.785 -7.58884 70.8412 -10.4598 71.9694C-14.9488 74.107 -20.0791 74.107 -20.0791 74.107C-20.0791 74.107 -16.0176 73.8933 -10.4598 76.2447C-7.68084 77.5272 -5.13943 79.0801 -2.55052 81.8025C-0.250281 84.2214 1.25863 86.7458 2.24641 89.0705C4.2899 94.2008 4.0761 98.2623 4.0761 98.2623C4.21301 94.0869 5.126 90.1526 7.06882 86.7191C8.77893 83.9401 10.7337 81.5873 13.0542 79.6649C14.9377 78.1045 17.1442 76.7784 19.4671 75.8171C22.2374 74.6708 25.2064 74.2082 28.4451 74.107C24.1038 73.9794 21.1772 73.252 17.3295 71.3281C14.7643 70.0455 12.7837 68.5212 11.1303 66.8391C9.01081 64.6827 7.37975 62.3501 6.21377 59.7849C4.07614 55.0821 4.07614 49.738 4.07614 49.738Z" stroke="white" stroke-width="0.5" stroke-linejoin="round"/>
<path d="M733.009 1C733.009 1 733.009 6.13032 730.871 10.6193C729.782 13.4074 727.817 16.2159 725.955 18.1011C724.033 20.047 721.344 22.1032 718.473 23.2314C713.984 25.369 708.854 25.369 708.854 25.369C708.854 25.369 712.915 25.1552 718.473 27.5066C721.252 28.7892 723.793 30.3421 726.382 33.0645C728.682 35.4833 730.191 38.0077 731.179 40.3324C733.223 45.4627 733.009 49.5242 733.009 49.5242C733.146 45.3488 734.059 41.4145 736.001 37.981C737.712 35.2021 739.666 32.8492 741.987 30.9268C743.87 29.3664 746.077 28.0403 748.4 27.0791C751.17 25.9327 754.139 25.4702 757.378 25.369C753.036 25.2413 750.11 24.5139 746.262 22.5901C743.697 21.3075 741.716 19.7832 740.063 18.1011C737.943 15.9446 736.312 13.612 735.146 11.0469C733.009 6.34408 733.009 1 733.009 1Z" stroke="white" stroke-width="0.5" stroke-linejoin="round"/>
<path d="M733.009 98.4758C733.009 98.4758 733.009 103.606 730.871 108.095C729.782 110.883 727.817 113.692 725.955 115.577C724.033 117.523 721.344 119.579 718.473 120.707C713.984 122.845 708.854 122.845 708.854 122.845C708.854 122.845 712.915 122.631 718.473 124.982C721.252 126.265 723.793 127.818 726.382 130.54C728.682 132.959 730.191 135.484 731.179 137.808C733.223 142.939 733.009 147 733.009 147C733.146 142.825 734.059 138.89 736.001 135.457C737.712 132.678 739.666 130.325 741.987 128.403C743.87 126.842 746.077 125.516 748.4 124.555C751.17 123.409 754.139 122.946 757.378 122.845C753.036 122.717 750.11 121.99 746.262 120.066C743.697 118.783 741.716 117.259 740.063 115.577C737.943 113.42 736.312 111.088 735.146 108.523C733.009 103.82 733.009 98.4758 733.009 98.4758Z" stroke="white" stroke-width="0.5" stroke-linejoin="round"/>
<path d="M635.96 1C635.96 1 635.96 6.13032 633.822 10.6193C632.734 13.4074 630.768 16.2159 628.906 18.1011C626.984 20.047 624.295 22.1032 621.424 23.2314C616.935 25.369 611.805 25.369 611.805 25.369C611.805 25.369 615.866 25.1552 621.424 27.5066C624.203 28.7892 626.744 30.3421 629.333 33.0645C631.634 35.4833 633.142 38.0077 634.13 40.3324C636.174 45.4627 635.96 49.5242 635.96 49.5242C636.097 45.3488 637.01 41.4145 638.953 37.981C640.663 35.2021 642.618 32.8492 644.938 30.9268C646.822 29.3664 649.028 28.0403 651.351 27.0791C654.121 25.9327 657.09 25.4702 660.329 25.369C655.988 25.2413 653.061 24.5139 649.213 22.5901C646.648 21.3075 644.667 19.7832 643.014 18.1011C640.895 15.9446 639.264 13.612 638.098 11.0469C635.96 6.34408 635.96 1 635.96 1Z" stroke="white" stroke-width="0.5" stroke-linejoin="round"/>
<path d="M635.96 98.4758C635.96 98.4758 635.96 103.606 633.822 108.095C632.734 110.883 630.768 113.692 628.906 115.577C626.984 117.523 624.295 119.579 621.424 120.707C616.935 122.845 611.805 122.845 611.805 122.845C611.805 122.845 615.866 122.631 621.424 124.982C624.203 126.265 626.744 127.818 629.333 130.54C631.634 132.959 633.142 135.484 634.13 137.808C636.174 142.939 635.96 147 635.96 147C636.097 142.825 637.01 138.89 638.953 135.457C640.663 132.678 642.618 130.325 644.938 128.403C646.822 126.842 649.028 125.516 651.351 124.555C654.121 123.409 657.09 122.946 660.329 122.845C655.988 122.717 653.061 121.99 649.213 120.066C646.648 118.783 644.667 117.259 643.014 115.577C640.895 113.42 639.264 111.088 638.098 108.523C635.96 103.82 635.96 98.4758 635.96 98.4758Z" stroke="white" stroke-width="0.5" stroke-linejoin="round"/>
<path d="M295.65 1C295.65 1 295.65 6.13032 293.513 10.6193C292.424 13.4074 290.458 16.2159 288.596 18.1011C286.674 20.047 283.985 22.1032 281.114 23.2314C276.625 25.369 271.495 25.369 271.495 25.369C271.495 25.369 275.557 25.1552 281.114 27.5066C283.893 28.7892 286.435 30.3421 289.024 33.0645C291.324 35.4833 292.833 38.0077 293.821 40.3324C295.864 45.4627 295.65 49.5242 295.65 49.5242C295.787 45.3488 296.7 41.4145 298.643 37.981C300.353 35.2021 302.308 32.8492 304.628 30.9268C306.512 29.3664 308.718 28.0403 311.041 27.0791C313.812 25.9327 316.781 25.4702 320.019 25.369C315.678 25.2413 312.751 24.5139 308.904 22.5901C306.339 21.3075 304.358 19.7832 302.705 18.1011C300.585 15.9446 298.954 13.612 297.788 11.0469C295.65 6.34408 295.65 1 295.65 1Z" stroke="white" stroke-width="0.5" stroke-linejoin="round"/>
<path d="M295.65 98.4758C295.65 98.4758 295.65 103.606 293.513 108.095C292.424 110.883 290.458 113.692 288.596 115.577C286.674 117.523 283.985 119.579 281.114 120.707C276.625 122.845 271.495 122.845 271.495 122.845C271.495 122.845 275.557 122.631 281.114 124.982C283.893 126.265 286.435 127.818 289.024 130.54C291.324 132.959 292.833 135.484 293.821 137.808C295.864 142.939 295.65 147 295.65 147C295.787 142.825 296.7 138.89 298.643 135.457C300.353 132.678 302.308 130.325 304.628 128.403C306.512 126.842 308.718 125.516 311.041 124.555C313.812 123.409 316.781 122.946 320.019 122.845C315.678 122.717 312.751 121.99 308.904 120.066C306.339 118.783 304.358 117.259 302.705 115.577C300.585 113.42 298.954 111.088 297.788 108.523C295.65 103.82 295.65 98.4758 295.65 98.4758Z" stroke="white" stroke-width="0.5" stroke-linejoin="round"/>
<path d="M538.485 1C538.485 1 538.485 6.13032 536.348 10.6193C535.259 13.4074 533.293 16.2159 531.431 18.1011C529.509 20.047 526.82 22.1032 523.949 23.2314C519.46 25.369 514.33 25.369 514.33 25.369C514.33 25.369 518.392 25.1552 523.949 27.5066C526.728 28.7892 529.27 30.3421 531.859 33.0645C534.159 35.4833 535.668 38.0077 536.656 40.3324C538.699 45.4627 538.485 49.5242 538.485 49.5242C538.622 45.3488 539.535 41.4145 541.478 37.981C543.188 35.2021 545.143 32.8492 547.463 30.9268C549.347 29.3664 551.553 28.0403 553.876 27.0791C556.647 25.9327 559.616 25.4702 562.854 25.369C558.513 25.2413 555.586 24.5139 551.739 22.5901C549.173 21.3075 547.193 19.7832 545.539 18.1011C543.42 15.9446 541.789 13.612 540.623 11.0469C538.485 6.34408 538.485 1 538.485 1Z" stroke="white" stroke-width="0.5" stroke-linejoin="round"/>
<path d="M538.485 98.4758C538.485 98.4758 538.485 103.606 536.348 108.095C535.259 110.883 533.293 113.692 531.431 115.577C529.509 117.523 526.82 119.579 523.949 120.707C519.46 122.845 514.33 122.845 514.33 122.845C514.33 122.845 518.392 122.631 523.949 124.982C526.728 126.265 529.27 127.818 531.859 130.54C534.159 132.959 535.668 135.484 536.656 137.808C538.699 142.939 538.485 147 538.485 147C538.622 142.825 539.535 138.89 541.478 135.457C543.188 132.678 545.143 130.325 547.463 128.403C549.347 126.842 551.553 125.516 553.876 124.555C556.647 123.409 559.616 122.946 562.854 122.845C558.513 122.717 555.586 121.99 551.739 120.066C549.173 118.783 547.193 117.259 545.539 115.577C543.42 113.42 541.789 111.088 540.623 108.523C538.485 103.82 538.485 98.4758 538.485 98.4758Z" stroke="white" stroke-width="0.5" stroke-linejoin="round"/>
<path d="M198.174 1C198.174 1 198.174 6.13032 196.036 10.6193C194.947 13.4074 192.982 16.2159 191.12 18.1011C189.198 20.047 186.509 22.1032 183.638 23.2314C179.149 25.369 174.019 25.369 174.019 25.369C174.019 25.369 178.08 25.1552 183.638 27.5066C186.417 28.7892 188.958 30.3421 191.547 33.0645C193.847 35.4833 195.356 38.0077 196.344 40.3324C198.388 45.4627 198.174 49.5242 198.174 49.5242C198.311 45.3488 199.224 41.4145 201.166 37.981C202.877 35.2021 204.831 32.8492 207.152 30.9268C209.035 29.3664 211.242 28.0403 213.565 27.0791C216.335 25.9327 219.304 25.4702 222.543 25.369C218.201 25.2413 215.275 24.5139 211.427 22.5901C208.862 21.3075 206.881 19.7832 205.228 18.1011C203.108 15.9446 201.477 13.612 200.311 11.0469C198.174 6.34408 198.174 1 198.174 1Z" stroke="white" stroke-width="0.5" stroke-linejoin="round"/>
<path d="M198.174 98.4758C198.174 98.4758 198.174 103.606 196.036 108.095C194.947 110.883 192.982 113.692 191.12 115.577C189.198 117.523 186.509 119.579 183.638 120.707C179.149 122.845 174.019 122.845 174.019 122.845C174.019 122.845 178.08 122.631 183.638 124.982C186.417 126.265 188.958 127.818 191.547 130.54C193.847 132.959 195.356 135.484 196.344 137.808C198.388 142.939 198.174 147 198.174 147C198.311 142.825 199.224 138.89 201.166 135.457C202.877 132.678 204.831 130.325 207.152 128.403C209.035 126.842 211.242 125.516 213.565 124.555C216.335 123.409 219.304 122.946 222.543 122.845C218.201 122.717 215.275 121.99 211.427 120.066C208.862 118.783 206.881 117.259 205.228 115.577C203.108 113.42 201.477 111.088 200.311 108.523C198.174 103.82 198.174 98.4758 198.174 98.4758Z" stroke="white" stroke-width="0.5" stroke-linejoin="round"/>
<path d="M101.125 1C101.125 1 101.125 6.13032 98.9873 10.6193C97.8986 13.4074 95.9328 16.2159 94.0708 18.1011C92.1488 20.047 89.46 22.1032 86.5891 23.2314C82.1 25.369 76.9697 25.369 76.9697 25.369C76.9697 25.369 81.0312 25.1552 86.5891 27.5066C89.368 28.7892 91.9094 30.3421 94.4983 33.0645C96.7985 35.4833 98.3075 38.0077 99.2952 40.3324C101.339 45.4627 101.125 49.5242 101.125 49.5242C101.262 45.3488 102.175 41.4145 104.118 37.981C105.828 35.2021 107.783 32.8492 110.103 30.9268C111.987 29.3664 114.193 28.0403 116.516 27.0791C119.286 25.9327 122.255 25.4702 125.494 25.369C121.153 25.2413 118.226 24.5139 114.378 22.5901C111.813 21.3075 109.832 19.7832 108.179 18.1011C106.06 15.9446 104.429 13.612 103.263 11.0469C101.125 6.34408 101.125 1 101.125 1Z" stroke="white" stroke-width="0.5" stroke-linejoin="round"/>
<path d="M101.125 98.4758C101.125 98.4758 101.125 103.606 98.9873 108.095C97.8986 110.883 95.9328 113.692 94.0708 115.577C92.1488 117.523 89.46 119.579 86.5891 120.707C82.1 122.845 76.9697 122.845 76.9697 122.845C76.9697 122.845 81.0312 122.631 86.5891 124.982C89.368 126.265 91.9094 127.818 94.4983 130.54C96.7985 132.959 98.3075 135.484 99.2952 137.808C101.339 142.939 101.125 147 101.125 147C101.262 142.825 102.175 138.89 104.118 135.457C105.828 132.678 107.783 130.325 110.103 128.403C111.987 126.842 114.193 125.516 116.516 124.555C119.286 123.409 122.255 122.946 125.494 122.845C121.153 122.717 118.226 121.99 114.378 120.066C111.813 118.783 109.832 117.259 108.179 115.577C106.06 113.42 104.429 111.088 103.263 108.523C101.125 103.82 101.125 98.4758 101.125 98.4758Z" stroke="white" stroke-width="0.5" stroke-linejoin="round"/>
<path d="M4.07614 1C4.07614 1 4.07614 6.13032 1.9385 10.6193C0.849757 13.4074 -1.11603 16.2159 -2.97805 18.1011C-4.90003 20.047 -7.58884 22.1032 -10.4598 23.2314C-14.9488 25.369 -20.0791 25.369 -20.0791 25.369C-20.0791 25.369 -16.0176 25.1552 -10.4598 27.5066C-7.68084 28.7892 -5.13943 30.3421 -2.55052 33.0645C-0.250281 35.4833 1.25863 38.0077 2.24641 40.3324C4.2899 45.4627 4.0761 49.5242 4.0761 49.5242C4.21301 45.3488 5.126 41.4145 7.06882 37.981C8.77893 35.2021 10.7337 32.8492 13.0542 30.9268C14.9377 29.3664 17.1442 28.0403 19.4671 27.0791C22.2374 25.9327 25.2064 25.4702 28.4451 25.369C24.1038 25.2413 21.1772 24.5139 17.3295 22.5901C14.7643 21.3075 12.7837 19.7832 11.1303 18.1011C9.01081 15.9446 7.37975 13.612 6.21377 11.0469C4.07614 6.34408 4.07614 1 4.07614 1Z" stroke="white" stroke-width="0.5" stroke-linejoin="round"/>
<path d="M4.07614 98.4758C4.07614 98.4758 4.07614 103.606 1.9385 108.095C0.849757 110.883 -1.11603 113.692 -2.97805 115.577C-4.90003 117.523 -7.58884 119.579 -10.4598 120.707C-14.9488 122.845 -20.0791 122.845 -20.0791 122.845C-20.0791 122.845 -16.0176 122.631 -10.4598 124.982C-7.68084 126.265 -5.13943 127.818 -2.55052 130.54C-0.250281 132.959 1.25863 135.484 2.24641 137.808C4.2899 142.939 4.0761 147 4.0761 147C4.21301 142.825 5.126 138.89 7.06882 135.457C8.77893 132.678 10.7337 130.325 13.0542 128.403C14.9377 126.842 17.1442 125.516 19.4671 124.555C22.2374 123.409 25.2064 122.946 28.4451 122.845C24.1038 122.717 21.1772 121.99 17.3295 120.066C14.7643 118.783 12.7837 117.259 11.1303 115.577C9.01081 113.42 7.37975 111.088 6.21377 108.523C4.07614 103.82 4.07614 98.4758 4.07614 98.4758Z" stroke="white" stroke-width="0.5" stroke-linejoin="round"/>
</svg>
