<svg width="89" height="63" viewBox="0 0 89 63" fill="none" xmlns="http://www.w3.org/2000/svg">
<path fill-rule="evenodd" clip-rule="evenodd" d="M0.719539 0.200195H10.818C10.818 0.200195 10.3318 25.6289 10.818 27.6452C11.3042 29.6616 13.4212 34.0304 17.9991 35.3747H22.0385C23.7964 35.1133 27.6937 33.3359 29.2197 28.3174V0.200195H39.3181C39.3181 0.200195 41.9806 8.30081 44.3674 13.1946C46.0163 16.5755 49.08 21.5961 49.08 21.5961C49.08 21.5961 51.8227 14.091 55.4757 10.8421C58.7829 7.90081 60.8391 6.27171 65.6864 5.91324C69.0245 5.66638 69.3968 5.72411 69.9403 5.80838C70.186 5.84647 70.4667 5.88999 71.0722 5.91324C73.0171 5.98793 78.6823 7.97834 82.1805 11.2902C85.2615 14.207 86.6771 16.4974 87.7908 20.5879C88.8596 24.514 88.8794 27.0853 87.7908 31.0059C86.5084 35.6243 84.716 38.2325 80.9463 41.1997C77.233 44.1225 75.538 45.1877 69.6135 45.4565C69.6135 45.4565 68.6411 45.7552 66.3596 45.4565C64.0781 45.1578 58.6399 43.933 55.1391 41.4238C55.1391 41.4238 52.4835 54.3435 52.1095 55.6504C51.7355 56.9573 50.9426 60.0864 50.7631 62.1476H40.4402C41.5996 56.7706 42.7166 51.5693 44.143 44.7844C44.4567 43.2922 44.8146 41.7086 45.1553 40.2009C45.8231 37.2461 46.425 34.5829 46.4993 33.4703C45.1154 31.566 41.7418 26.5922 39.3181 21.9322C39.3181 21.9322 39.5425 26.4877 39.3181 28.3174C39.0937 30.147 37.8951 34.377 35.6154 37.503C33.587 40.2844 32.0372 41.7113 28.9953 43.3281C25.1341 45.3803 22.3506 45.9014 17.9991 45.4565C14.3866 45.0872 12.2637 44.3384 9.24714 42.3199C5.51803 39.8246 2.066 33.3583 2.066 33.3583C2.066 33.3583 0.988832 30.6922 0.719539 28.0933C0.450247 25.4944 0.719539 0.200195 0.719539 0.200195ZM74.1262 33.7791C70.363 36.3843 62.2578 36.0948 57.3367 30.8843C57.6771 27.9235 58.1416 24.1528 60.2315 20.753C62.6057 16.8906 66.0209 15.5424 69.4946 15.8318C71.3288 15.9846 74.5831 16.4141 76.7315 20.1739C77.8894 22.2004 78.1788 23.358 78.2443 25.585C78.3345 28.6528 77.8894 31.1738 74.1262 33.7791Z" fill="#14A800"/>
</svg>
