<svg width="90" height="101" viewBox="0 0 90 101" fill="none" xmlns="http://www.w3.org/2000/svg">
<path d="M31.8916 85.7406V101H64.2956V76.8927C64.398 72.0712 61.3497 68.8997 59.8128 67.9166C71.0837 67.096 79.0246 61.9325 81.5862 59.4534C87.529 55.5552 89.5271 42.9545 89.7832 37.1414C91.1152 28.7295 85.9836 20.557 83.2512 17.5222C86.0177 11.2646 83.8916 3.37416 82.4827 0.211161C76.9497 -1.12243 68.0525 4.18629 64.2956 7.00735C50.9754 3.41692 36.9721 5.51134 31.6355 7.00735C22.6187 0.647147 15.9245 -0.173525 13.7044 0.211165C10.5281 6.98171 11.954 14.6584 13.064 17.6504C8.76059 22.5745 7.00164 29.0202 6.6601 31.6275C5.63547 39.4239 7.77011 47.6135 8.96552 50.7338C11.5271 57.6582 15.3695 59.8381 20.6207 63.5568C24.8217 66.5317 32.6174 67.7029 35.9901 67.9166C33.736 68.8399 32.3185 73.9434 31.8916 76.3798C29.8424 78.1237 25.4877 78.3887 23.5665 78.3032C19.468 78.4058 15.4548 74.841 13.9606 73.0458C12.0138 68.2243 6.83087 65.4803 4.48276 64.7109C2.12611 64.0954 0.512315 64.9674 0 65.4803C0 66.5061 2.47619 68.3014 3.71428 69.0707C6.78818 71.1224 10.0328 77.8759 11.2709 80.9961C13.3202 83.9711 17.5041 85.3987 19.3399 85.7406C22.6187 86.5613 29.0739 86.0826 31.8916 85.7406Z" fill="black"/>
</svg>
