<svg width="554" height="537" viewBox="0 0 554 537" fill="none" xmlns="http://www.w3.org/2000/svg">
<g id="skills">
<g id="Vector 17">
<path d="M281.457 310.318V265.241L320.911 242.456V287.829L281.457 310.318Z" fill="#023047"/>
<path d="M279.788 310.318V265.241L240.727 242.456V287.829L279.788 310.318Z" fill="#023047"/>
<path d="M319.93 241.272L280.672 264.057L241.904 241.272L280.672 217.797L319.93 241.272Z" fill="#023047"/>
</g>
<circle id="circle-1" cx="280.433" cy="263.672" r="128.644" stroke="white"/>
<circle id="circle-2" cx="280.819" cy="264.057" r="246.993" stroke="white"/>
<g id="Expand-box">
<path id="Vector 111" d="M280.5 264L242 241.5L281 217.5L319.5 241.5L280.5 264Z" fill="#063149"/>
<path id="Vector 110" d="M280 310.264V265.5L240.5 242.256V287.5L280 310.264Z" fill="#063149"/>
<path id="Vector 109" d="M281.5 310.5V265.264L321 242.5V288L281.5 310.5Z" fill="#063149"/>
</g>
<g id="html">
<circle id="Ellipse 32" cx="365.158" cy="167.85" r="33.0237" fill="#063149"/>
<path id="HTML" d="M351.884 166.342V167.568H345.728V166.342H351.884ZM345.962 161.451V172.826H344.454V161.451H345.962ZM353.196 161.451V172.826H351.696V161.451H353.196ZM359.845 161.451V172.826H358.36V161.451H359.845ZM363.501 161.451V162.686H354.712V161.451H363.501ZM365.665 161.451H367.126L370.853 170.725L374.571 161.451H376.04L371.415 172.826H370.274L365.665 161.451ZM365.188 161.451H366.478L366.688 168.389V172.826H365.188V161.451ZM375.22 161.451H376.509V172.826H375.009V168.389L375.22 161.451ZM386.056 171.6V172.826H380.368V171.6H386.056ZM380.665 161.451V172.826H379.157V161.451H380.665Z" fill="white"/>
</g>
<g id="CSS">
<circle id="Ellipse 32_2" cx="321.024" cy="380.024" r="33.0237" fill="#063149"/>
<path id="CSS_2" d="M312.188 381.383H313.688C313.609 382.102 313.404 382.745 313.07 383.312C312.737 383.88 312.266 384.331 311.656 384.664C311.047 384.992 310.286 385.156 309.375 385.156C308.708 385.156 308.102 385.031 307.555 384.781C307.013 384.531 306.547 384.177 306.156 383.719C305.766 383.255 305.464 382.701 305.25 382.055C305.042 381.404 304.938 380.68 304.938 379.883V378.75C304.938 377.953 305.042 377.232 305.25 376.586C305.464 375.935 305.768 375.378 306.164 374.914C306.565 374.451 307.047 374.094 307.609 373.844C308.172 373.594 308.805 373.469 309.508 373.469C310.367 373.469 311.094 373.63 311.688 373.953C312.281 374.276 312.742 374.724 313.07 375.297C313.404 375.865 313.609 376.523 313.688 377.273H312.188C312.115 376.742 311.979 376.286 311.781 375.906C311.583 375.521 311.302 375.224 310.938 375.016C310.573 374.807 310.096 374.703 309.508 374.703C309.003 374.703 308.557 374.799 308.172 374.992C307.792 375.185 307.471 375.458 307.211 375.812C306.956 376.167 306.763 376.591 306.633 377.086C306.503 377.581 306.438 378.13 306.438 378.734V379.883C306.438 380.44 306.495 380.964 306.609 381.453C306.729 381.943 306.909 382.372 307.148 382.742C307.388 383.112 307.693 383.404 308.062 383.617C308.432 383.826 308.87 383.93 309.375 383.93C310.016 383.93 310.526 383.828 310.906 383.625C311.286 383.422 311.573 383.13 311.766 382.75C311.964 382.37 312.104 381.914 312.188 381.383ZM321.805 382.125C321.805 381.859 321.763 381.625 321.68 381.422C321.602 381.214 321.461 381.026 321.258 380.859C321.06 380.693 320.784 380.534 320.43 380.383C320.081 380.232 319.638 380.078 319.102 379.922C318.539 379.755 318.031 379.57 317.578 379.367C317.125 379.159 316.737 378.922 316.414 378.656C316.091 378.391 315.844 378.086 315.672 377.742C315.5 377.398 315.414 377.005 315.414 376.562C315.414 376.12 315.505 375.711 315.688 375.336C315.87 374.961 316.13 374.635 316.469 374.359C316.812 374.078 317.221 373.859 317.695 373.703C318.169 373.547 318.698 373.469 319.281 373.469C320.135 373.469 320.859 373.633 321.453 373.961C322.052 374.284 322.508 374.708 322.82 375.234C323.133 375.755 323.289 376.312 323.289 376.906H321.789C321.789 376.479 321.698 376.102 321.516 375.773C321.333 375.44 321.057 375.18 320.688 374.992C320.318 374.799 319.849 374.703 319.281 374.703C318.745 374.703 318.302 374.784 317.953 374.945C317.604 375.107 317.344 375.326 317.172 375.602C317.005 375.878 316.922 376.193 316.922 376.547C316.922 376.786 316.971 377.005 317.07 377.203C317.174 377.396 317.333 377.576 317.547 377.742C317.766 377.909 318.042 378.062 318.375 378.203C318.714 378.344 319.117 378.479 319.586 378.609C320.232 378.792 320.789 378.995 321.258 379.219C321.727 379.443 322.112 379.695 322.414 379.977C322.721 380.253 322.948 380.568 323.094 380.922C323.245 381.271 323.32 381.667 323.32 382.109C323.32 382.573 323.227 382.992 323.039 383.367C322.852 383.742 322.583 384.062 322.234 384.328C321.885 384.594 321.466 384.799 320.977 384.945C320.492 385.086 319.951 385.156 319.352 385.156C318.826 385.156 318.307 385.083 317.797 384.938C317.292 384.792 316.831 384.573 316.414 384.281C316.003 383.99 315.672 383.63 315.422 383.203C315.177 382.771 315.055 382.271 315.055 381.703H316.555C316.555 382.094 316.63 382.43 316.781 382.711C316.932 382.987 317.138 383.216 317.398 383.398C317.664 383.581 317.964 383.716 318.297 383.805C318.635 383.888 318.987 383.93 319.352 383.93C319.878 383.93 320.323 383.857 320.688 383.711C321.052 383.565 321.328 383.357 321.516 383.086C321.708 382.815 321.805 382.495 321.805 382.125ZM331.305 382.125C331.305 381.859 331.263 381.625 331.18 381.422C331.102 381.214 330.961 381.026 330.758 380.859C330.56 380.693 330.284 380.534 329.93 380.383C329.581 380.232 329.138 380.078 328.602 379.922C328.039 379.755 327.531 379.57 327.078 379.367C326.625 379.159 326.237 378.922 325.914 378.656C325.591 378.391 325.344 378.086 325.172 377.742C325 377.398 324.914 377.005 324.914 376.562C324.914 376.12 325.005 375.711 325.188 375.336C325.37 374.961 325.63 374.635 325.969 374.359C326.312 374.078 326.721 373.859 327.195 373.703C327.669 373.547 328.198 373.469 328.781 373.469C329.635 373.469 330.359 373.633 330.953 373.961C331.552 374.284 332.008 374.708 332.32 375.234C332.633 375.755 332.789 376.312 332.789 376.906H331.289C331.289 376.479 331.198 376.102 331.016 375.773C330.833 375.44 330.557 375.18 330.188 374.992C329.818 374.799 329.349 374.703 328.781 374.703C328.245 374.703 327.802 374.784 327.453 374.945C327.104 375.107 326.844 375.326 326.672 375.602C326.505 375.878 326.422 376.193 326.422 376.547C326.422 376.786 326.471 377.005 326.57 377.203C326.674 377.396 326.833 377.576 327.047 377.742C327.266 377.909 327.542 378.062 327.875 378.203C328.214 378.344 328.617 378.479 329.086 378.609C329.732 378.792 330.289 378.995 330.758 379.219C331.227 379.443 331.612 379.695 331.914 379.977C332.221 380.253 332.448 380.568 332.594 380.922C332.745 381.271 332.82 381.667 332.82 382.109C332.82 382.573 332.727 382.992 332.539 383.367C332.352 383.742 332.083 384.062 331.734 384.328C331.385 384.594 330.966 384.799 330.477 384.945C329.992 385.086 329.451 385.156 328.852 385.156C328.326 385.156 327.807 385.083 327.297 384.938C326.792 384.792 326.331 384.573 325.914 384.281C325.503 383.99 325.172 383.63 324.922 383.203C324.677 382.771 324.555 382.271 324.555 381.703H326.055C326.055 382.094 326.13 382.43 326.281 382.711C326.432 382.987 326.638 383.216 326.898 383.398C327.164 383.581 327.464 383.716 327.797 383.805C328.135 383.888 328.487 383.93 328.852 383.93C329.378 383.93 329.823 383.857 330.188 383.711C330.552 383.565 330.828 383.357 331.016 383.086C331.208 382.815 331.305 382.495 331.305 382.125Z" fill="white"/>
</g>
<g id="JS">
<circle id="Ellipse 32_3" cx="156.024" cy="251.024" r="33.0237" fill="#063149"/>
<path id="JS_2" d="M153.094 252.68V244.625H154.594V252.68C154.594 253.43 154.44 254.062 154.133 254.578C153.826 255.094 153.401 255.487 152.859 255.758C152.323 256.023 151.706 256.156 151.008 256.156C150.31 256.156 149.69 256.036 149.148 255.797C148.607 255.557 148.182 255.193 147.875 254.703C147.568 254.214 147.414 253.596 147.414 252.852H148.922C148.922 253.331 149.01 253.724 149.188 254.031C149.365 254.339 149.609 254.565 149.922 254.711C150.24 254.857 150.602 254.93 151.008 254.93C151.404 254.93 151.758 254.846 152.07 254.68C152.388 254.508 152.638 254.255 152.82 253.922C153.003 253.583 153.094 253.169 153.094 252.68ZM163.211 253.125C163.211 252.859 163.169 252.625 163.086 252.422C163.008 252.214 162.867 252.026 162.664 251.859C162.466 251.693 162.19 251.534 161.836 251.383C161.487 251.232 161.044 251.078 160.508 250.922C159.945 250.755 159.438 250.57 158.984 250.367C158.531 250.159 158.143 249.922 157.82 249.656C157.497 249.391 157.25 249.086 157.078 248.742C156.906 248.398 156.82 248.005 156.82 247.562C156.82 247.12 156.911 246.711 157.094 246.336C157.276 245.961 157.536 245.635 157.875 245.359C158.219 245.078 158.628 244.859 159.102 244.703C159.576 244.547 160.104 244.469 160.688 244.469C161.542 244.469 162.266 244.633 162.859 244.961C163.458 245.284 163.914 245.708 164.227 246.234C164.539 246.755 164.695 247.312 164.695 247.906H163.195C163.195 247.479 163.104 247.102 162.922 246.773C162.74 246.44 162.464 246.18 162.094 245.992C161.724 245.799 161.255 245.703 160.688 245.703C160.151 245.703 159.708 245.784 159.359 245.945C159.01 246.107 158.75 246.326 158.578 246.602C158.411 246.878 158.328 247.193 158.328 247.547C158.328 247.786 158.378 248.005 158.477 248.203C158.581 248.396 158.74 248.576 158.953 248.742C159.172 248.909 159.448 249.062 159.781 249.203C160.12 249.344 160.523 249.479 160.992 249.609C161.638 249.792 162.195 249.995 162.664 250.219C163.133 250.443 163.518 250.695 163.82 250.977C164.128 251.253 164.354 251.568 164.5 251.922C164.651 252.271 164.727 252.667 164.727 253.109C164.727 253.573 164.633 253.992 164.445 254.367C164.258 254.742 163.99 255.062 163.641 255.328C163.292 255.594 162.872 255.799 162.383 255.945C161.898 256.086 161.357 256.156 160.758 256.156C160.232 256.156 159.714 256.083 159.203 255.938C158.698 255.792 158.237 255.573 157.82 255.281C157.409 254.99 157.078 254.63 156.828 254.203C156.583 253.771 156.461 253.271 156.461 252.703H157.961C157.961 253.094 158.036 253.43 158.188 253.711C158.339 253.987 158.544 254.216 158.805 254.398C159.07 254.581 159.37 254.716 159.703 254.805C160.042 254.888 160.393 254.93 160.758 254.93C161.284 254.93 161.729 254.857 162.094 254.711C162.458 254.565 162.734 254.357 162.922 254.086C163.115 253.815 163.211 253.495 163.211 253.125Z" fill="white"/>
</g>
<g id="TAILWIND">
<circle id="Ellipse 32_4" cx="82.0237" cy="135.024" r="33.0237" fill="#063149"/>
<path id="TW" d="M75.5234 129.625V141H74.0391V129.625H75.5234ZM79.1797 129.625V130.859H70.3906V129.625H79.1797ZM83.9844 137.562L86.2422 129.625H87.3359L86.7031 132.711L84.2734 141H83.1875L83.9844 137.562ZM81.6484 129.625L83.4453 137.406L83.9844 141H82.9062L80.1484 129.625H81.6484ZM90.2578 137.398L92.0156 129.625H93.5234L90.7734 141H89.6953L90.2578 137.398ZM87.5 129.625L89.6953 137.562L90.4922 141H89.4062L87.0625 132.711L86.4219 129.625H87.5Z" fill="white"/>
</g>
<g id="GIT">
<circle id="Ellipse 32_5" cx="209.024" cy="33.0237" r="33.0237" fill="#063149"/>
<path id="GIT_2" d="M206.727 33.3359V37.5C206.586 37.7083 206.362 37.9427 206.055 38.2031C205.747 38.4583 205.323 38.6823 204.781 38.875C204.245 39.0625 203.552 39.1562 202.703 39.1562C202.01 39.1562 201.372 39.0365 200.789 38.7969C200.211 38.5521 199.708 38.1979 199.281 37.7344C198.859 37.2656 198.531 36.6979 198.297 36.0312C198.068 35.3594 197.953 34.599 197.953 33.75V32.8672C197.953 32.0182 198.052 31.2604 198.25 30.5938C198.453 29.9271 198.75 29.362 199.141 28.8984C199.531 28.4297 200.01 28.0755 200.578 27.8359C201.146 27.5911 201.797 27.4688 202.531 27.4688C203.401 27.4688 204.128 27.6198 204.711 27.9219C205.299 28.2188 205.758 28.6302 206.086 29.1562C206.419 29.6823 206.633 30.2812 206.727 30.9531H205.219C205.151 30.5417 205.016 30.1667 204.812 29.8281C204.615 29.4896 204.331 29.2188 203.961 29.0156C203.591 28.8073 203.115 28.7031 202.531 28.7031C202.005 28.7031 201.549 28.7995 201.164 28.9922C200.779 29.1849 200.461 29.4609 200.211 29.8203C199.961 30.1797 199.773 30.6146 199.648 31.125C199.529 31.6354 199.469 32.2109 199.469 32.8516V33.75C199.469 34.4062 199.544 34.9922 199.695 35.5078C199.852 36.0234 200.073 36.4635 200.359 36.8281C200.646 37.1875 200.987 37.4609 201.383 37.6484C201.784 37.8359 202.227 37.9297 202.711 37.9297C203.247 37.9297 203.682 37.8854 204.016 37.7969C204.349 37.7031 204.609 37.5938 204.797 37.4688C204.984 37.3385 205.128 37.2161 205.227 37.1016V34.5547H202.594V33.3359H206.727ZM210.844 27.625V39H209.336V27.625H210.844ZM217.555 27.625V39H216.07V27.625H217.555ZM221.211 27.625V28.8594H212.422V27.625H221.211Z" fill="white"/>
</g>
<g id="NODE">
<circle id="Ellipse 32_6" cx="365.024" cy="33.0237" r="33.0237" fill="#063149"/>
<path id="NODE_2" d="M354.07 27.625V39H352.555L346.828 30.2266V39H345.32V27.625H346.828L352.578 36.4219V27.625H354.07ZM365.5 32.9531V33.6719C365.5 34.526 365.393 35.2917 365.18 35.9688C364.966 36.6458 364.659 37.2214 364.258 37.6953C363.857 38.1693 363.375 38.5312 362.812 38.7812C362.255 39.0312 361.63 39.1562 360.938 39.1562C360.266 39.1562 359.648 39.0312 359.086 38.7812C358.529 38.5312 358.044 38.1693 357.633 37.6953C357.227 37.2214 356.911 36.6458 356.688 35.9688C356.464 35.2917 356.352 34.526 356.352 33.6719V32.9531C356.352 32.099 356.461 31.3359 356.68 30.6641C356.904 29.987 357.219 29.4115 357.625 28.9375C358.031 28.4583 358.513 28.0938 359.07 27.8438C359.633 27.5938 360.25 27.4688 360.922 27.4688C361.615 27.4688 362.24 27.5938 362.797 27.8438C363.359 28.0938 363.841 28.4583 364.242 28.9375C364.648 29.4115 364.958 29.987 365.172 30.6641C365.391 31.3359 365.5 32.099 365.5 32.9531ZM364.008 33.6719V32.9375C364.008 32.2604 363.938 31.6615 363.797 31.1406C363.661 30.6198 363.461 30.1823 363.195 29.8281C362.93 29.474 362.604 29.2057 362.219 29.0234C361.839 28.8411 361.406 28.75 360.922 28.75C360.453 28.75 360.029 28.8411 359.648 29.0234C359.273 29.2057 358.951 29.474 358.68 29.8281C358.414 30.1823 358.208 30.6198 358.062 31.1406C357.917 31.6615 357.844 32.2604 357.844 32.9375V33.6719C357.844 34.3542 357.917 34.9583 358.062 35.4844C358.208 36.0052 358.417 36.4453 358.688 36.8047C358.964 37.1589 359.289 37.4271 359.664 37.6094C360.044 37.7917 360.469 37.8828 360.938 37.8828C361.427 37.8828 361.862 37.7917 362.242 37.6094C362.622 37.4271 362.943 37.1589 363.203 36.8047C363.469 36.4453 363.669 36.0052 363.805 35.4844C363.94 34.9583 364.008 34.3542 364.008 33.6719ZM370.836 39H368.461L368.477 37.7734H370.836C371.648 37.7734 372.326 37.6042 372.867 37.2656C373.409 36.9219 373.815 36.4427 374.086 35.8281C374.362 35.2083 374.5 34.4844 374.5 33.6562V32.9609C374.5 32.3099 374.422 31.7318 374.266 31.2266C374.109 30.7161 373.88 30.2865 373.578 29.9375C373.276 29.5833 372.906 29.3151 372.469 29.1328C372.036 28.9505 371.539 28.8594 370.977 28.8594H368.414V27.625H370.977C371.721 27.625 372.401 27.75 373.016 28C373.63 28.2448 374.159 28.6016 374.602 29.0703C375.049 29.5339 375.393 30.0964 375.633 30.7578C375.872 31.4141 375.992 32.1536 375.992 32.9766V33.6562C375.992 34.4792 375.872 35.2214 375.633 35.8828C375.393 36.5391 375.047 37.099 374.594 37.5625C374.146 38.026 373.604 38.3828 372.969 38.6328C372.339 38.8776 371.628 39 370.836 39ZM369.266 27.625V39H367.758V27.625H369.266ZM385.484 37.7734V39H379.461V37.7734H385.484ZM379.766 27.625V39H378.258V27.625H379.766ZM384.688 32.5156V33.7422H379.461V32.5156H384.688ZM385.406 27.625V28.8594H379.461V27.625H385.406Z" fill="white"/>
</g>
<g id="REACT">
<circle id="Ellipse 32_7" cx="503.024" cy="150.024" r="33.0237" fill="#063149"/>
<path id="REACT_2" d="M479.32 144.625H483.086C483.94 144.625 484.661 144.755 485.25 145.016C485.844 145.276 486.294 145.661 486.602 146.172C486.914 146.677 487.07 147.299 487.07 148.039C487.07 148.56 486.964 149.036 486.75 149.469C486.542 149.896 486.24 150.26 485.844 150.562C485.453 150.859 484.984 151.081 484.438 151.227L484.016 151.391H480.477L480.461 150.164H483.133C483.674 150.164 484.125 150.07 484.484 149.883C484.844 149.69 485.115 149.432 485.297 149.109C485.479 148.786 485.57 148.43 485.57 148.039C485.57 147.602 485.484 147.219 485.312 146.891C485.141 146.562 484.87 146.31 484.5 146.133C484.135 145.951 483.664 145.859 483.086 145.859H480.828V156H479.32V144.625ZM485.969 156L483.203 150.844L484.773 150.836L487.578 155.906V156H485.969ZM496.406 154.773V156H490.383V154.773H496.406ZM490.688 144.625V156H489.18V144.625H490.688ZM495.609 149.516V150.742H490.383V149.516H495.609ZM496.328 144.625V145.859H490.383V144.625H496.328ZM502.484 145.633L498.719 156H497.18L501.516 144.625H502.508L502.484 145.633ZM505.641 156L501.867 145.633L501.844 144.625H502.836L507.188 156H505.641ZM505.445 151.789V153.023H499.055V151.789H505.445ZM515.484 152.383H516.984C516.906 153.102 516.701 153.745 516.367 154.312C516.034 154.88 515.562 155.331 514.953 155.664C514.344 155.992 513.583 156.156 512.672 156.156C512.005 156.156 511.398 156.031 510.852 155.781C510.31 155.531 509.844 155.177 509.453 154.719C509.062 154.255 508.76 153.701 508.547 153.055C508.339 152.404 508.234 151.68 508.234 150.883V149.75C508.234 148.953 508.339 148.232 508.547 147.586C508.76 146.935 509.065 146.378 509.461 145.914C509.862 145.451 510.344 145.094 510.906 144.844C511.469 144.594 512.102 144.469 512.805 144.469C513.664 144.469 514.391 144.63 514.984 144.953C515.578 145.276 516.039 145.724 516.367 146.297C516.701 146.865 516.906 147.523 516.984 148.273H515.484C515.411 147.742 515.276 147.286 515.078 146.906C514.88 146.521 514.599 146.224 514.234 146.016C513.87 145.807 513.393 145.703 512.805 145.703C512.299 145.703 511.854 145.799 511.469 145.992C511.089 146.185 510.768 146.458 510.508 146.812C510.253 147.167 510.06 147.591 509.93 148.086C509.799 148.581 509.734 149.13 509.734 149.734V150.883C509.734 151.44 509.792 151.964 509.906 152.453C510.026 152.943 510.206 153.372 510.445 153.742C510.685 154.112 510.99 154.404 511.359 154.617C511.729 154.826 512.167 154.93 512.672 154.93C513.312 154.93 513.823 154.828 514.203 154.625C514.583 154.422 514.87 154.13 515.062 153.75C515.26 153.37 515.401 152.914 515.484 152.383ZM523.008 144.625V156H521.523V144.625H523.008ZM526.664 144.625V145.859H517.875V144.625H526.664Z" fill="white"/>
</g>
<g id="EXPRESS">
<circle id="Ellipse 32_8" cx="520.024" cy="332.024" r="33.0237" fill="#063149"/>
<path id="EXPRE." d="M501.547 336.773V338H495.523V336.773H501.547ZM495.828 326.625V338H494.32V326.625H495.828ZM500.75 331.516V332.742H495.523V331.516H500.75ZM501.469 326.625V327.859H495.523V326.625H501.469ZM504.391 326.625L507.125 330.984L509.859 326.625H511.617L508.023 332.258L511.703 338H509.93L507.125 333.555L504.32 338H502.547L506.227 332.258L502.633 326.625H504.391ZM517.641 333.539H514.602V332.312H517.641C518.229 332.312 518.706 332.219 519.07 332.031C519.435 331.844 519.701 331.583 519.867 331.25C520.039 330.917 520.125 330.536 520.125 330.109C520.125 329.719 520.039 329.352 519.867 329.008C519.701 328.664 519.435 328.388 519.07 328.18C518.706 327.966 518.229 327.859 517.641 327.859H514.953V338H513.445V326.625H517.641C518.5 326.625 519.227 326.773 519.82 327.07C520.414 327.367 520.865 327.779 521.172 328.305C521.479 328.826 521.633 329.422 521.633 330.094C521.633 330.823 521.479 331.445 521.172 331.961C520.865 332.477 520.414 332.87 519.82 333.141C519.227 333.406 518.5 333.539 517.641 333.539ZM523.539 326.625H527.305C528.159 326.625 528.88 326.755 529.469 327.016C530.062 327.276 530.513 327.661 530.82 328.172C531.133 328.677 531.289 329.299 531.289 330.039C531.289 330.56 531.182 331.036 530.969 331.469C530.76 331.896 530.458 332.26 530.062 332.562C529.672 332.859 529.203 333.081 528.656 333.227L528.234 333.391H524.695L524.68 332.164H527.352C527.893 332.164 528.344 332.07 528.703 331.883C529.062 331.69 529.333 331.432 529.516 331.109C529.698 330.786 529.789 330.43 529.789 330.039C529.789 329.602 529.703 329.219 529.531 328.891C529.359 328.562 529.089 328.31 528.719 328.133C528.354 327.951 527.883 327.859 527.305 327.859H525.047V338H523.539V326.625ZM530.188 338L527.422 332.844L528.992 332.836L531.797 337.906V338H530.188ZM540.625 336.773V338H534.602V336.773H540.625ZM534.906 326.625V338H533.398V326.625H534.906ZM539.828 331.516V332.742H534.602V331.516H539.828ZM540.547 326.625V327.859H534.602V326.625H540.547ZM542.297 337.234C542.297 336.99 542.372 336.784 542.523 336.617C542.68 336.445 542.904 336.359 543.195 336.359C543.487 336.359 543.708 336.445 543.859 336.617C544.016 336.784 544.094 336.99 544.094 337.234C544.094 337.474 544.016 337.677 543.859 337.844C543.708 338.01 543.487 338.094 543.195 338.094C542.904 338.094 542.68 338.01 542.523 337.844C542.372 337.677 542.297 337.474 542.297 337.234Z" fill="white"/>
</g>
<g id="BT5">
<circle id="Ellipse 32_9" cx="402.024" cy="479.024" r="33.0237" fill="#063149"/>
<path id="BT5_2" d="M393.375 479.68H390.492L390.477 478.469H393.094C393.526 478.469 393.904 478.396 394.227 478.25C394.549 478.104 394.799 477.896 394.977 477.625C395.159 477.349 395.25 477.021 395.25 476.641C395.25 476.224 395.169 475.885 395.008 475.625C394.852 475.359 394.609 475.167 394.281 475.047C393.958 474.922 393.547 474.859 393.047 474.859H390.828V485H389.32V473.625H393.047C393.63 473.625 394.151 473.685 394.609 473.805C395.068 473.919 395.456 474.102 395.773 474.352C396.096 474.596 396.341 474.909 396.508 475.289C396.674 475.669 396.758 476.125 396.758 476.656C396.758 477.125 396.638 477.549 396.398 477.93C396.159 478.305 395.826 478.612 395.398 478.852C394.977 479.091 394.482 479.245 393.914 479.312L393.375 479.68ZM393.305 485H389.898L390.75 483.773H393.305C393.784 483.773 394.19 483.69 394.523 483.523C394.862 483.357 395.12 483.122 395.297 482.82C395.474 482.513 395.562 482.151 395.562 481.734C395.562 481.312 395.487 480.948 395.336 480.641C395.185 480.333 394.948 480.096 394.625 479.93C394.302 479.763 393.885 479.68 393.375 479.68H391.227L391.242 478.469H394.18L394.5 478.906C395.047 478.953 395.51 479.109 395.891 479.375C396.271 479.635 396.56 479.969 396.758 480.375C396.961 480.781 397.062 481.229 397.062 481.719C397.062 482.427 396.906 483.026 396.594 483.516C396.286 484 395.852 484.37 395.289 484.625C394.727 484.875 394.065 485 393.305 485ZM403.273 473.625V485H401.789V473.625H403.273ZM406.93 473.625V474.859H398.141V473.625H406.93ZM410.07 479.586L408.914 479.289L409.484 473.625H415.32V474.961H410.711L410.367 478.055C410.576 477.935 410.839 477.823 411.156 477.719C411.479 477.615 411.849 477.562 412.266 477.562C412.792 477.562 413.263 477.654 413.68 477.836C414.096 478.013 414.451 478.268 414.742 478.602C415.039 478.935 415.266 479.336 415.422 479.805C415.578 480.273 415.656 480.797 415.656 481.375C415.656 481.922 415.581 482.424 415.43 482.883C415.284 483.341 415.062 483.742 414.766 484.086C414.469 484.424 414.094 484.688 413.641 484.875C413.193 485.062 412.664 485.156 412.055 485.156C411.596 485.156 411.161 485.094 410.75 484.969C410.344 484.839 409.979 484.643 409.656 484.383C409.339 484.117 409.078 483.789 408.875 483.398C408.677 483.003 408.552 482.539 408.5 482.008H409.875C409.938 482.435 410.062 482.794 410.25 483.086C410.438 483.378 410.682 483.599 410.984 483.75C411.292 483.896 411.648 483.969 412.055 483.969C412.398 483.969 412.703 483.909 412.969 483.789C413.234 483.669 413.458 483.497 413.641 483.273C413.823 483.049 413.961 482.779 414.055 482.461C414.154 482.143 414.203 481.786 414.203 481.391C414.203 481.031 414.154 480.698 414.055 480.391C413.956 480.083 413.807 479.815 413.609 479.586C413.417 479.357 413.18 479.18 412.898 479.055C412.617 478.924 412.294 478.859 411.93 478.859C411.445 478.859 411.078 478.924 410.828 479.055C410.583 479.185 410.331 479.362 410.07 479.586Z" fill="white"/>
</g>
<g id="gsap">
<circle id="Ellipse 32_10" cx="226.024" cy="503.024" r="33.0237" fill="#063149"/>
<path id="gsa" d="M218.727 503.336V507.5C218.586 507.708 218.362 507.943 218.055 508.203C217.747 508.458 217.323 508.682 216.781 508.875C216.245 509.062 215.552 509.156 214.703 509.156C214.01 509.156 213.372 509.036 212.789 508.797C212.211 508.552 211.708 508.198 211.281 507.734C210.859 507.266 210.531 506.698 210.297 506.031C210.068 505.359 209.953 504.599 209.953 503.75V502.867C209.953 502.018 210.052 501.26 210.25 500.594C210.453 499.927 210.75 499.362 211.141 498.898C211.531 498.43 212.01 498.076 212.578 497.836C213.146 497.591 213.797 497.469 214.531 497.469C215.401 497.469 216.128 497.62 216.711 497.922C217.299 498.219 217.758 498.63 218.086 499.156C218.419 499.682 218.633 500.281 218.727 500.953H217.219C217.151 500.542 217.016 500.167 216.812 499.828C216.615 499.49 216.331 499.219 215.961 499.016C215.591 498.807 215.115 498.703 214.531 498.703C214.005 498.703 213.549 498.799 213.164 498.992C212.779 499.185 212.461 499.461 212.211 499.82C211.961 500.18 211.773 500.615 211.648 501.125C211.529 501.635 211.469 502.211 211.469 502.852V503.75C211.469 504.406 211.544 504.992 211.695 505.508C211.852 506.023 212.073 506.464 212.359 506.828C212.646 507.188 212.987 507.461 213.383 507.648C213.784 507.836 214.227 507.93 214.711 507.93C215.247 507.93 215.682 507.885 216.016 507.797C216.349 507.703 216.609 507.594 216.797 507.469C216.984 507.339 217.128 507.216 217.227 507.102V504.555H214.594V503.336H218.727ZM225.93 506.758C225.93 506.549 225.883 506.357 225.789 506.18C225.701 505.997 225.516 505.833 225.234 505.688C224.958 505.536 224.542 505.406 223.984 505.297C223.516 505.198 223.091 505.081 222.711 504.945C222.336 504.81 222.016 504.646 221.75 504.453C221.49 504.26 221.289 504.034 221.148 503.773C221.008 503.513 220.938 503.208 220.938 502.859C220.938 502.526 221.01 502.211 221.156 501.914C221.307 501.617 221.518 501.354 221.789 501.125C222.065 500.896 222.396 500.716 222.781 500.586C223.167 500.456 223.596 500.391 224.07 500.391C224.747 500.391 225.326 500.51 225.805 500.75C226.284 500.99 226.651 501.31 226.906 501.711C227.161 502.107 227.289 502.547 227.289 503.031H225.844C225.844 502.797 225.773 502.57 225.633 502.352C225.497 502.128 225.297 501.943 225.031 501.797C224.771 501.651 224.451 501.578 224.07 501.578C223.669 501.578 223.344 501.641 223.094 501.766C222.849 501.885 222.669 502.039 222.555 502.227C222.445 502.414 222.391 502.612 222.391 502.82C222.391 502.977 222.417 503.117 222.469 503.242C222.526 503.362 222.625 503.474 222.766 503.578C222.906 503.677 223.104 503.771 223.359 503.859C223.615 503.948 223.94 504.036 224.336 504.125C225.029 504.281 225.599 504.469 226.047 504.688C226.495 504.906 226.828 505.174 227.047 505.492C227.266 505.81 227.375 506.195 227.375 506.648C227.375 507.018 227.297 507.357 227.141 507.664C226.99 507.971 226.768 508.237 226.477 508.461C226.19 508.68 225.846 508.852 225.445 508.977C225.049 509.096 224.604 509.156 224.109 509.156C223.365 509.156 222.734 509.023 222.219 508.758C221.703 508.492 221.312 508.148 221.047 507.727C220.781 507.305 220.648 506.859 220.648 506.391H222.102C222.122 506.786 222.237 507.102 222.445 507.336C222.654 507.565 222.909 507.729 223.211 507.828C223.513 507.922 223.812 507.969 224.109 507.969C224.505 507.969 224.836 507.917 225.102 507.812C225.372 507.708 225.578 507.565 225.719 507.383C225.859 507.201 225.93 506.992 225.93 506.758ZM234.258 507.555V503.203C234.258 502.87 234.19 502.581 234.055 502.336C233.924 502.086 233.727 501.893 233.461 501.758C233.195 501.622 232.867 501.555 232.477 501.555C232.112 501.555 231.792 501.617 231.516 501.742C231.245 501.867 231.031 502.031 230.875 502.234C230.724 502.438 230.648 502.656 230.648 502.891H229.203C229.203 502.589 229.281 502.289 229.438 501.992C229.594 501.695 229.818 501.427 230.109 501.188C230.406 500.943 230.76 500.75 231.172 500.609C231.589 500.464 232.052 500.391 232.562 500.391C233.177 500.391 233.719 500.495 234.188 500.703C234.661 500.911 235.031 501.227 235.297 501.648C235.568 502.065 235.703 502.589 235.703 503.219V507.156C235.703 507.438 235.727 507.737 235.773 508.055C235.826 508.372 235.901 508.646 236 508.875V509H234.492C234.419 508.833 234.362 508.612 234.32 508.336C234.279 508.055 234.258 507.794 234.258 507.555ZM234.508 503.875L234.523 504.891H233.062C232.651 504.891 232.284 504.924 231.961 504.992C231.638 505.055 231.367 505.151 231.148 505.281C230.93 505.411 230.763 505.576 230.648 505.773C230.534 505.966 230.477 506.193 230.477 506.453C230.477 506.719 230.536 506.961 230.656 507.18C230.776 507.398 230.956 507.573 231.195 507.703C231.44 507.828 231.74 507.891 232.094 507.891C232.536 507.891 232.927 507.797 233.266 507.609C233.604 507.422 233.872 507.193 234.07 506.922C234.273 506.651 234.383 506.388 234.398 506.133L235.016 506.828C234.979 507.047 234.88 507.289 234.719 507.555C234.557 507.82 234.341 508.076 234.07 508.32C233.805 508.56 233.487 508.76 233.117 508.922C232.753 509.078 232.341 509.156 231.883 509.156C231.31 509.156 230.807 509.044 230.375 508.82C229.948 508.596 229.615 508.297 229.375 507.922C229.141 507.542 229.023 507.117 229.023 506.648C229.023 506.195 229.112 505.797 229.289 505.453C229.466 505.104 229.721 504.815 230.055 504.586C230.388 504.352 230.789 504.174 231.258 504.055C231.727 503.935 232.25 503.875 232.828 503.875H234.508ZM239.422 502.172V512.25H237.969V500.547H239.297L239.422 502.172ZM245.117 504.703V504.867C245.117 505.482 245.044 506.052 244.898 506.578C244.753 507.099 244.539 507.552 244.258 507.938C243.982 508.323 243.641 508.622 243.234 508.836C242.828 509.049 242.362 509.156 241.836 509.156C241.299 509.156 240.826 509.068 240.414 508.891C240.003 508.714 239.654 508.456 239.367 508.117C239.081 507.779 238.852 507.372 238.68 506.898C238.513 506.424 238.398 505.891 238.336 505.297V504.422C238.398 503.797 238.516 503.237 238.688 502.742C238.859 502.247 239.086 501.826 239.367 501.477C239.654 501.122 240 500.854 240.406 500.672C240.812 500.484 241.281 500.391 241.812 500.391C242.344 500.391 242.815 500.495 243.227 500.703C243.638 500.906 243.984 501.198 244.266 501.578C244.547 501.958 244.758 502.414 244.898 502.945C245.044 503.471 245.117 504.057 245.117 504.703ZM243.664 504.867V504.703C243.664 504.281 243.62 503.885 243.531 503.516C243.443 503.141 243.305 502.812 243.117 502.531C242.935 502.245 242.701 502.021 242.414 501.859C242.128 501.693 241.786 501.609 241.391 501.609C241.026 501.609 240.708 501.672 240.438 501.797C240.172 501.922 239.945 502.091 239.758 502.305C239.57 502.513 239.417 502.753 239.297 503.023C239.182 503.289 239.096 503.565 239.039 503.852V505.875C239.143 506.24 239.289 506.583 239.477 506.906C239.664 507.224 239.914 507.482 240.227 507.68C240.539 507.872 240.932 507.969 241.406 507.969C241.797 507.969 242.133 507.888 242.414 507.727C242.701 507.56 242.935 507.333 243.117 507.047C243.305 506.76 243.443 506.432 243.531 506.062C243.62 505.688 243.664 505.289 243.664 504.867Z" fill="white"/>
</g>
<g id="sql">
<circle id="Ellipse 32_11" cx="37.0237" cy="277.024" r="33.0237" fill="#063149"/>
<path id="gsa_2" d="M27.3828 280.125C27.3828 279.859 27.3411 279.625 27.2578 279.422C27.1797 279.214 27.0391 279.026 26.8359 278.859C26.638 278.693 26.362 278.534 26.0078 278.383C25.6589 278.232 25.2161 278.078 24.6797 277.922C24.1172 277.755 23.6094 277.57 23.1562 277.367C22.7031 277.159 22.3151 276.922 21.9922 276.656C21.6693 276.391 21.4219 276.086 21.25 275.742C21.0781 275.398 20.9922 275.005 20.9922 274.562C20.9922 274.12 21.0833 273.711 21.2656 273.336C21.4479 272.961 21.7083 272.635 22.0469 272.359C22.3906 272.078 22.7995 271.859 23.2734 271.703C23.7474 271.547 24.276 271.469 24.8594 271.469C25.7135 271.469 26.4375 271.633 27.0312 271.961C27.6302 272.284 28.0859 272.708 28.3984 273.234C28.7109 273.755 28.8672 274.312 28.8672 274.906H27.3672C27.3672 274.479 27.276 274.102 27.0938 273.773C26.9115 273.44 26.6354 273.18 26.2656 272.992C25.8958 272.799 25.4271 272.703 24.8594 272.703C24.3229 272.703 23.8802 272.784 23.5312 272.945C23.1823 273.107 22.9219 273.326 22.75 273.602C22.5833 273.878 22.5 274.193 22.5 274.547C22.5 274.786 22.5495 275.005 22.6484 275.203C22.7526 275.396 22.9115 275.576 23.125 275.742C23.3438 275.909 23.6198 276.062 23.9531 276.203C24.2917 276.344 24.6953 276.479 25.1641 276.609C25.8099 276.792 26.3672 276.995 26.8359 277.219C27.3047 277.443 27.6901 277.695 27.9922 277.977C28.2995 278.253 28.526 278.568 28.6719 278.922C28.8229 279.271 28.8984 279.667 28.8984 280.109C28.8984 280.573 28.8047 280.992 28.6172 281.367C28.4297 281.742 28.1615 282.062 27.8125 282.328C27.4635 282.594 27.0443 282.799 26.5547 282.945C26.0703 283.086 25.5286 283.156 24.9297 283.156C24.4036 283.156 23.8854 283.083 23.375 282.938C22.8698 282.792 22.4089 282.573 21.9922 282.281C21.5807 281.99 21.25 281.63 21 281.203C20.7552 280.771 20.6328 280.271 20.6328 279.703H22.1328C22.1328 280.094 22.2083 280.43 22.3594 280.711C22.5104 280.987 22.7161 281.216 22.9766 281.398C23.2422 281.581 23.5417 281.716 23.875 281.805C24.2135 281.888 24.5651 281.93 24.9297 281.93C25.4557 281.93 25.901 281.857 26.2656 281.711C26.6302 281.565 26.9062 281.357 27.0938 281.086C27.2865 280.815 27.3828 280.495 27.3828 280.125ZM36.6562 281.695L39.5469 283.984L38.5312 284.922L35.6875 282.664L36.6562 281.695ZM39.5078 276.953V277.672C39.5078 278.526 39.401 279.292 39.1875 279.969C38.974 280.646 38.6667 281.221 38.2656 281.695C37.8646 282.169 37.3828 282.531 36.8203 282.781C36.263 283.031 35.638 283.156 34.9453 283.156C34.2734 283.156 33.6562 283.031 33.0938 282.781C32.5365 282.531 32.0521 282.169 31.6406 281.695C31.2344 281.221 30.9193 280.646 30.6953 279.969C30.4714 279.292 30.3594 278.526 30.3594 277.672V276.953C30.3594 276.099 30.4688 275.336 30.6875 274.664C30.9115 273.987 31.2266 273.411 31.6328 272.938C32.0391 272.458 32.5208 272.094 33.0781 271.844C33.6406 271.594 34.2578 271.469 34.9297 271.469C35.6224 271.469 36.25 271.594 36.8125 271.844C37.375 272.094 37.8568 272.458 38.2578 272.938C38.6589 273.411 38.9661 273.987 39.1797 274.664C39.3984 275.336 39.5078 276.099 39.5078 276.953ZM38.0156 277.672V276.938C38.0156 276.26 37.9453 275.661 37.8047 275.141C37.6693 274.62 37.4688 274.182 37.2031 273.828C36.9375 273.474 36.6146 273.206 36.2344 273.023C35.8542 272.841 35.4193 272.75 34.9297 272.75C34.4661 272.75 34.0443 272.841 33.6641 273.023C33.2891 273.206 32.9661 273.474 32.6953 273.828C32.4245 274.182 32.2161 274.62 32.0703 275.141C31.9245 275.661 31.8516 276.26 31.8516 276.938V277.672C31.8516 278.354 31.9245 278.958 32.0703 279.484C32.2161 280.005 32.4245 280.445 32.6953 280.805C32.9714 281.159 33.2995 281.427 33.6797 281.609C34.0599 281.792 34.4818 281.883 34.9453 281.883C35.4349 281.883 35.8698 281.792 36.25 281.609C36.6302 281.427 36.9505 281.159 37.2109 280.805C37.4766 280.445 37.6771 280.005 37.8125 279.484C37.9479 278.958 38.0156 278.354 38.0156 277.672ZM48.7344 281.773V283H43.0469V281.773H48.7344ZM43.3438 271.625V283H41.8359V271.625H43.3438Z" fill="white"/>
</g>
<g id="chart">
<circle id="Ellipse 32_12" cx="87.0237" cy="431.024" r="33.0237" fill="#063149"/>
<path id="gsa_3" d="M75.1875 433.383H76.6875C76.6094 434.102 76.4036 434.745 76.0703 435.312C75.737 435.88 75.2656 436.331 74.6562 436.664C74.0469 436.992 73.2865 437.156 72.375 437.156C71.7083 437.156 71.1016 437.031 70.5547 436.781C70.013 436.531 69.5469 436.177 69.1562 435.719C68.7656 435.255 68.4635 434.701 68.25 434.055C68.0417 433.404 67.9375 432.68 67.9375 431.883V430.75C67.9375 429.953 68.0417 429.232 68.25 428.586C68.4635 427.935 68.7682 427.378 69.1641 426.914C69.5651 426.451 70.0469 426.094 70.6094 425.844C71.1719 425.594 71.8047 425.469 72.5078 425.469C73.3672 425.469 74.0938 425.63 74.6875 425.953C75.2812 426.276 75.7422 426.724 76.0703 427.297C76.4036 427.865 76.6094 428.523 76.6875 429.273H75.1875C75.1146 428.742 74.9792 428.286 74.7812 427.906C74.5833 427.521 74.3021 427.224 73.9375 427.016C73.5729 426.807 73.0964 426.703 72.5078 426.703C72.0026 426.703 71.5573 426.799 71.1719 426.992C70.7917 427.185 70.4714 427.458 70.2109 427.812C69.9557 428.167 69.763 428.591 69.6328 429.086C69.5026 429.581 69.4375 430.13 69.4375 430.734V431.883C69.4375 432.44 69.4948 432.964 69.6094 433.453C69.7292 433.943 69.9089 434.372 70.1484 434.742C70.388 435.112 70.6927 435.404 71.0625 435.617C71.4323 435.826 71.8698 435.93 72.375 435.93C73.0156 435.93 73.526 435.828 73.9062 435.625C74.2865 435.422 74.5729 435.13 74.7656 434.75C74.9635 434.37 75.1042 433.914 75.1875 433.383ZM79.9688 425V437H78.5234V425H79.9688ZM79.625 432.453L79.0234 432.43C79.0286 431.852 79.1146 431.318 79.2812 430.828C79.4479 430.333 79.6823 429.904 79.9844 429.539C80.2865 429.174 80.6458 428.893 81.0625 428.695C81.4844 428.492 81.9505 428.391 82.4609 428.391C82.8776 428.391 83.2526 428.448 83.5859 428.562C83.9193 428.672 84.2031 428.849 84.4375 429.094C84.6771 429.339 84.8594 429.656 84.9844 430.047C85.1094 430.432 85.1719 430.904 85.1719 431.461V437H83.7188V431.445C83.7188 431.003 83.6536 430.648 83.5234 430.383C83.3932 430.112 83.2031 429.917 82.9531 429.797C82.7031 429.672 82.3958 429.609 82.0312 429.609C81.6719 429.609 81.3438 429.685 81.0469 429.836C80.7552 429.987 80.5026 430.195 80.2891 430.461C80.0807 430.727 79.9167 431.031 79.7969 431.375C79.6823 431.714 79.625 432.073 79.625 432.453ZM92.3203 435.555V431.203C92.3203 430.87 92.2526 430.581 92.1172 430.336C91.987 430.086 91.7891 429.893 91.5234 429.758C91.2578 429.622 90.9297 429.555 90.5391 429.555C90.1745 429.555 89.8542 429.617 89.5781 429.742C89.3073 429.867 89.0938 430.031 88.9375 430.234C88.7865 430.438 88.7109 430.656 88.7109 430.891H87.2656C87.2656 430.589 87.3438 430.289 87.5 429.992C87.6562 429.695 87.8802 429.427 88.1719 429.188C88.4688 428.943 88.8229 428.75 89.2344 428.609C89.651 428.464 90.1146 428.391 90.625 428.391C91.2396 428.391 91.7812 428.495 92.25 428.703C92.724 428.911 93.0938 429.227 93.3594 429.648C93.6302 430.065 93.7656 430.589 93.7656 431.219V435.156C93.7656 435.438 93.7891 435.737 93.8359 436.055C93.888 436.372 93.9635 436.646 94.0625 436.875V437H92.5547C92.4818 436.833 92.4245 436.612 92.3828 436.336C92.3411 436.055 92.3203 435.794 92.3203 435.555ZM92.5703 431.875L92.5859 432.891H91.125C90.7135 432.891 90.3464 432.924 90.0234 432.992C89.7005 433.055 89.4297 433.151 89.2109 433.281C88.9922 433.411 88.8255 433.576 88.7109 433.773C88.5964 433.966 88.5391 434.193 88.5391 434.453C88.5391 434.719 88.599 434.961 88.7188 435.18C88.8385 435.398 89.0182 435.573 89.2578 435.703C89.5026 435.828 89.8021 435.891 90.1562 435.891C90.599 435.891 90.9896 435.797 91.3281 435.609C91.6667 435.422 91.9349 435.193 92.1328 434.922C92.3359 434.651 92.4453 434.388 92.4609 434.133L93.0781 434.828C93.0417 435.047 92.9427 435.289 92.7812 435.555C92.6198 435.82 92.4036 436.076 92.1328 436.32C91.8672 436.56 91.5495 436.76 91.1797 436.922C90.8151 437.078 90.4036 437.156 89.9453 437.156C89.3724 437.156 88.8698 437.044 88.4375 436.82C88.0104 436.596 87.6771 436.297 87.4375 435.922C87.2031 435.542 87.0859 435.117 87.0859 434.648C87.0859 434.195 87.1745 433.797 87.3516 433.453C87.5286 433.104 87.7839 432.815 88.1172 432.586C88.4505 432.352 88.8516 432.174 89.3203 432.055C89.7891 431.935 90.3125 431.875 90.8906 431.875H92.5703ZM97.4844 429.875V437H96.0391V428.547H97.4453L97.4844 429.875ZM100.125 428.5L100.117 429.844C99.9974 429.818 99.8828 429.802 99.7734 429.797C99.6693 429.786 99.5495 429.781 99.4141 429.781C99.0807 429.781 98.7865 429.833 98.5312 429.938C98.276 430.042 98.0599 430.188 97.8828 430.375C97.7057 430.562 97.5651 430.786 97.4609 431.047C97.362 431.302 97.2969 431.583 97.2656 431.891L96.8594 432.125C96.8594 431.615 96.9089 431.135 97.0078 430.688C97.112 430.24 97.2708 429.844 97.4844 429.5C97.6979 429.151 97.9688 428.88 98.2969 428.688C98.6302 428.49 99.026 428.391 99.4844 428.391C99.5885 428.391 99.7083 428.404 99.8438 428.43C99.9792 428.451 100.073 428.474 100.125 428.5ZM105.391 428.547V429.656H100.82V428.547H105.391ZM102.367 426.492H103.812V434.906C103.812 435.193 103.857 435.409 103.945 435.555C104.034 435.701 104.148 435.797 104.289 435.844C104.43 435.891 104.581 435.914 104.742 435.914C104.862 435.914 104.987 435.904 105.117 435.883C105.253 435.857 105.354 435.836 105.422 435.82L105.43 437C105.315 437.036 105.164 437.07 104.977 437.102C104.794 437.138 104.573 437.156 104.312 437.156C103.958 437.156 103.633 437.086 103.336 436.945C103.039 436.805 102.802 436.57 102.625 436.242C102.453 435.909 102.367 435.461 102.367 434.898V426.492Z" fill="white"/>
</g>
</g>
</svg>
